{
    "asset" : {
        "generator" : "Khronos glTF Blender I/O v1.7.33",
        "version" : "2.0"
    },
    "scene" : 0,
    "scenes" : [
        {
            "name" : "Scene",
            "nodes" : [
                5
            ]
        }
    ],
    "nodes" : [
        {
            "mesh" : 0,
            "name" : "B_Queen_01 - Default_0",
            "translation" : [
                1.2411651611328125,
                -7.950475692749023,
                0
            ]
        },
        {
            "children" : [
                0
            ],
            "name" : "B_Queen",
            "rotation" : [
                0,
                0.7071068286895752,
                0.7071068286895752,
                8.432166076488556e-09
            ],
            "translation" : [
                1.2411503791809082,
                0,
                7.950477123260498
            ]
        },
        {
            "children" : [
                1
            ],
            "name" : "RootNode"
        },
        {
            "children" : [
                2
            ],
            "name" : "Chess Board.FBX",
            "rotation" : [
                0.7071068286895752,
                0,
                0,
                0.7071068286895752
            ]
        },
        {
            "children" : [
                3
            ],
            "name" : "RootNode (model correction matrix)"
        },
        {
            "children" : [
                4
            ],
            "name" : "RootNode (gltf orientation matrix)",
            "rotation" : [
                -0.7071068286895752,
                0,
                0,
                0.7071068286895752
            ],
            "scale" : [
                0.012823999859392643,
                0.012823999859392643,
                0.012823999859392643
            ]
        }
    ],
    "materials" : [
        {
            "doubleSided" : true,
            "name" : "01_-_Default",
            "pbrMetallicRoughness" : {
                "baseColorTexture" : {
                    "index" : 0
                },
                "metallicFactor" : 0.6988120079040527,
                "roughnessFactor" : 0.3557334542274475
            }
        }
    ],
    "meshes" : [
        {
            "name" : "B_Queen_01 - Default_0",
            "primitives" : [
                {
                    "attributes" : {
                        "POSITION" : 0,
                        "NORMAL" : 1,
                        "TEXCOORD_0" : 2
                    },
                    "indices" : 3,
                    "material" : 0
                }
            ]
        }
    ],
    "textures" : [
        {
            "sampler" : 0,
            "source" : 0
        }
    ],
    "images" : [
        {
            "mimeType" : "image/jpeg",
            "name" : "01_-_Default_baseColor",
            "uri" : "01_-_Default_baseColor.jpg"
        }
    ],
    "accessors" : [
        {
            "bufferView" : 0,
            "componentType" : 5126,
            "count" : 2670,
            "max" : [
                24.411697387695312,
                24.099472045898438,
                45.178253173828125
            ],
            "min" : [
                -24.936965942382812,
                -24.499465942382812,
                -83.30624389648438
            ],
            "type" : "VEC3"
        },
        {
            "bufferView" : 1,
            "componentType" : 5126,
            "count" : 2670,
            "type" : "VEC3"
        },
        {
            "bufferView" : 2,
            "componentType" : 5126,
            "count" : 2670,
            "type" : "VEC2"
        },
        {
            "bufferView" : 3,
            "componentType" : 5123,
            "count" : 5448,
            "type" : "SCALAR"
        }
    ],
    "bufferViews" : [
        {
            "buffer" : 0,
            "byteLength" : 32040,
            "byteOffset" : 0
        },
        {
            "buffer" : 0,
            "byteLength" : 32040,
            "byteOffset" : 32040
        },
        {
            "buffer" : 0,
            "byteLength" : 21360,
            "byteOffset" : 64080
        },
        {
            "buffer" : 0,
            "byteLength" : 10896,
            "byteOffset" : 85440
        }
    ],
    "samplers" : [
        {
            "magFilter" : 9729,
            "minFilter" : 9987
        }
    ],
    "buffers" : [
        {
            "byteLength" : 96336,
            "uri" : "bqueen.bin"
        }
    ]
}
