{
    "asset" : {
        "generator" : "Khronos glTF Blender I/O v1.7.33",
        "version" : "2.0"
    },
    "scene" : 0,
    "scenes" : [
        {
            "name" : "Scene",
            "nodes" : [
                5
            ]
        }
    ],
    "nodes" : [
        {
            "mesh" : 0,
            "name" : "B_King_01 - Default_0",
            "translation" : [
                -4.41412353515625,
                -7.95050048828125,
                0
            ]
        },
        {
            "children" : [
                0
            ],
            "name" : "B_King",
            "rotation" : [
                0,
                0.7071068286895752,
                0.7071068286895752,
                8.432166076488556e-09
            ],
            "translation" : [
                -4.414123058319092,
                0,
                7.950500011444092
            ]
        },
        {
            "children" : [
                1
            ],
            "name" : "RootNode"
        },
        {
            "children" : [
                2
            ],
            "name" : "Chess Board.FBX",
            "rotation" : [
                0.7071068286895752,
                0,
                0,
                0.7071068286895752
            ]
        },
        {
            "children" : [
                3
            ],
            "name" : "RootNode (model correction matrix)"
        },
        {
            "children" : [
                4
            ],
            "name" : "RootNode (gltf orientation matrix)",
            "rotation" : [
                -0.7071068286895752,
                0,
                0,
                0.7071068286895752
            ],
            "scale" : [
                0.012823999859392643,
                0.012823999859392643,
                0.012823999859392643
            ]
        }
    ],
    "materials" : [
        {
            "doubleSided" : true,
            "name" : "01_-_Default",
            "pbrMetallicRoughness" : {
                "baseColorTexture" : {
                    "index" : 0
                },
                "metallicFactor" : 0.6988120079040527,
                "roughnessFactor" : 0.3557334542274475
            }
        }
    ],
    "meshes" : [
        {
            "name" : "B_King_01 - Default_0",
            "primitives" : [
                {
                    "attributes" : {
                        "POSITION" : 0,
                        "NORMAL" : 1,
                        "TEXCOORD_0" : 2
                    },
                    "indices" : 3,
                    "material" : 0
                }
            ]
        }
    ],
    "textures" : [
        {
            "sampler" : 0,
            "source" : 0
        }
    ],
    "images" : [
        {
            "mimeType" : "image/jpeg",
            "name" : "01_-_Default_baseColor",
            "uri" : "01_-_Default_baseColor.jpg"
        }
    ],
    "accessors" : [
        {
            "bufferView" : 0,
            "componentType" : 5126,
            "count" : 1423,
            "max" : [
                24.541473388671875,
                24.215728759765625,
                77.34284973144531
            ],
            "min" : [
                -24.057479858398438,
                -25.1329345703125,
                -71.81211853027344
            ],
            "type" : "VEC3"
        },
        {
            "bufferView" : 1,
            "componentType" : 5126,
            "count" : 1423,
            "type" : "VEC3"
        },
        {
            "bufferView" : 2,
            "componentType" : 5126,
            "count" : 1423,
            "type" : "VEC2"
        },
        {
            "bufferView" : 3,
            "componentType" : 5123,
            "count" : 4110,
            "type" : "SCALAR"
        }
    ],
    "bufferViews" : [
        {
            "buffer" : 0,
            "byteLength" : 17076,
            "byteOffset" : 0
        },
        {
            "buffer" : 0,
            "byteLength" : 17076,
            "byteOffset" : 17076
        },
        {
            "buffer" : 0,
            "byteLength" : 11384,
            "byteOffset" : 34152
        },
        {
            "buffer" : 0,
            "byteLength" : 8220,
            "byteOffset" : 45536
        }
    ],
    "samplers" : [
        {
            "magFilter" : 9729,
            "minFilter" : 9987
        }
    ],
    "buffers" : [
        {
            "byteLength" : 53756,
            "uri" : "bking.bin"
        }
    ]
}
