{
    "asset" : {
        "generator" : "Khronos glTF Blender I/O v1.7.33",
        "version" : "2.0"
    },
    "scene" : 0,
    "scenes" : [
        {
            "name" : "Scene",
            "nodes" : [
                5
            ]
        }
    ],
    "nodes" : [
        {
            "mesh" : 0,
            "name" : "W_Bishop_1_02 - Default_0",
            "translation" : [
                4.0649566650390625,
                9.582199096679688,
                7.62939453125e-06
            ]
        },
        {
            "children" : [
                0
            ],
            "name" : "W_Bishop_1",
            "rotation" : [
                -0.7071067094802856,
                0,
                0,
                0.7071068286895752
            ],
            "translation" : [
                -4.064956188201904,
                0,
                9.58220386505127
            ]
        },
        {
            "children" : [
                1
            ],
            "name" : "RootNode"
        },
        {
            "children" : [
                2
            ],
            "name" : "Chess Board.FBX",
            "rotation" : [
                0.7071068286895752,
                0,
                0,
                0.7071068286895752
            ]
        },
        {
            "children" : [
                3
            ],
            "name" : "RootNode (model correction matrix)"
        },
        {
            "children" : [
                4
            ],
            "name" : "RootNode (gltf orientation matrix)",
            "rotation" : [
                -0.7071068286895752,
                0,
                0,
                0.7071068286895752
            ],
            "scale" : [
                0.012823999859392643,
                0.012823999859392643,
                0.012823999859392643
            ]
        }
    ],
    "materials" : [
        {
            "doubleSided" : true,
            "name" : "02_-_Default",
            "pbrMetallicRoughness" : {
                "baseColorTexture" : {
                    "index" : 0
                },
                "metallicFactor" : 0.33000001311302185,
                "roughnessFactor" : 0.3400000035762787
            }
        }
    ],
    "meshes" : [
        {
            "name" : "W_Bishop_1_02 - Default_0",
            "primitives" : [
                {
                    "attributes" : {
                        "POSITION" : 0,
                        "NORMAL" : 1,
                        "TEXCOORD_0" : 2
                    },
                    "indices" : 3,
                    "material" : 0
                }
            ]
        }
    ],
    "textures" : [
        {
            "sampler" : 0,
            "source" : 0
        }
    ],
    "images" : [
        {
            "mimeType" : "image/jpeg",
            "name" : "02_-_Default_baseColor",
            "uri" : "02_-_Default_baseColor.jpg"
        }
    ],
    "accessors" : [
        {
            "bufferView" : 0,
            "componentType" : 5126,
            "count" : 2198,
            "max" : [
                24.517776489257812,
                24.109420776367188,
                45.84026336669922
            ],
            "min" : [
                -24.830886840820312,
                -24.489532470703125,
                -66.50421142578125
            ],
            "type" : "VEC3"
        },
        {
            "bufferView" : 1,
            "componentType" : 5126,
            "count" : 2198,
            "type" : "VEC3"
        },
        {
            "bufferView" : 2,
            "componentType" : 5126,
            "count" : 2198,
            "type" : "VEC2"
        },
        {
            "bufferView" : 3,
            "componentType" : 5123,
            "count" : 4464,
            "type" : "SCALAR"
        }
    ],
    "bufferViews" : [
        {
            "buffer" : 0,
            "byteLength" : 26376,
            "byteOffset" : 0
        },
        {
            "buffer" : 0,
            "byteLength" : 26376,
            "byteOffset" : 26376
        },
        {
            "buffer" : 0,
            "byteLength" : 17584,
            "byteOffset" : 52752
        },
        {
            "buffer" : 0,
            "byteLength" : 8928,
            "byteOffset" : 70336
        }
    ],
    "samplers" : [
        {
            "magFilter" : 9729,
            "minFilter" : 9987
        }
    ],
    "buffers" : [
        {
            "byteLength" : 79264,
            "uri" : "wbishop.bin"
        }
    ]
}
