{
    "asset" : {
        "generator" : "Khronos glTF Blender I/O v1.7.33",
        "version" : "2.0"
    },
    "scene" : 0,
    "scenes" : [
        {
            "name" : "Scene",
            "nodes" : [
                5
            ]
        }
    ],
    "nodes" : [
        {
            "mesh" : 0,
            "name" : "W_Rook_1_02 - Default_0",
            "translation" : [
                4.0649566650390625,
                9.582168579101562,
                1.52587890625e-05
            ]
        },
        {
            "children" : [
                0
            ],
            "name" : "W_Rook_1",
            "rotation" : [
                -0.7071067094802856,
                0,
                0,
                0.7071068286895752
            ],
            "translation" : [
                -4.064956188201904,
                0,
                9.58220386505127
            ]
        },
        {
            "children" : [
                1
            ],
            "name" : "RootNode"
        },
        {
            "children" : [
                2
            ],
            "name" : "Chess Board.FBX",
            "rotation" : [
                0.7071068286895752,
                0,
                0,
                0.7071068286895752
            ]
        },
        {
            "children" : [
                3
            ],
            "name" : "RootNode (model correction matrix)"
        },
        {
            "children" : [
                4
            ],
            "name" : "RootNode (gltf orientation matrix)",
            "rotation" : [
                -0.7071068286895752,
                0,
                0,
                0.7071068286895752
            ],
            "scale" : [
                0.012823999859392643,
                0.012823999859392643,
                0.012823999859392643
            ]
        }
    ],
    "materials" : [
        {
            "doubleSided" : true,
            "name" : "02_-_Default",
            "pbrMetallicRoughness" : {
                "baseColorTexture" : {
                    "index" : 0
                },
                "metallicFactor" : 0.33000001311302185,
                "roughnessFactor" : 0.3400000035762787
            }
        }
    ],
    "meshes" : [
        {
            "name" : "W_Rook_1_02 - Default_0",
            "primitives" : [
                {
                    "attributes" : {
                        "POSITION" : 0,
                        "NORMAL" : 1,
                        "TEXCOORD_0" : 2
                    },
                    "indices" : 3,
                    "material" : 0
                }
            ]
        }
    ],
    "textures" : [
        {
            "sampler" : 0,
            "source" : 0
        }
    ],
    "images" : [
        {
            "mimeType" : "image/jpeg",
            "name" : "02_-_Default_baseColor",
            "uri" : "02_-_Default_baseColor.jpg"
        }
    ],
    "accessors" : [
        {
            "bufferView" : 0,
            "componentType" : 5126,
            "count" : 669,
            "max" : [
                24.594772338867188,
                24.248764038085938,
                38.28357696533203
            ],
            "min" : [
                -24.753890991210938,
                -24.350173950195312,
                -53.09663391113281
            ],
            "type" : "VEC3"
        },
        {
            "bufferView" : 1,
            "componentType" : 5126,
            "count" : 669,
            "type" : "VEC3"
        },
        {
            "bufferView" : 2,
            "componentType" : 5126,
            "count" : 669,
            "type" : "VEC2"
        },
        {
            "bufferView" : 3,
            "componentType" : 5123,
            "count" : 2694,
            "type" : "SCALAR"
        }
    ],
    "bufferViews" : [
        {
            "buffer" : 0,
            "byteLength" : 8028,
            "byteOffset" : 0
        },
        {
            "buffer" : 0,
            "byteLength" : 8028,
            "byteOffset" : 8028
        },
        {
            "buffer" : 0,
            "byteLength" : 5352,
            "byteOffset" : 16056
        },
        {
            "buffer" : 0,
            "byteLength" : 5388,
            "byteOffset" : 21408
        }
    ],
    "samplers" : [
        {
            "magFilter" : 9729,
            "minFilter" : 9987
        }
    ],
    "buffers" : [
        {
            "byteLength" : 26796,
            "uri" : "wrook.bin"
        }
    ]
}
