<?xml version="1.0" encoding="UTF-8" standalone="no"?>
<svg
   version="1.1"
   width="45"
   height="45"
   id="svg4"
   sodipodi:docname="black-pawn.svg"
   inkscape:version="1.1.1 (3bf5ae0d25, 2021-09-20)"
   xmlns:inkscape="http://www.inkscape.org/namespaces/inkscape"
   xmlns:sodipodi="http://sodipodi.sourceforge.net/DTD/sodipodi-0.dtd"
   xmlns="http://www.w3.org/2000/svg"
   xmlns:svg="http://www.w3.org/2000/svg">
  <defs
     id="defs8" />
  <sodipodi:namedview
     id="namedview6"
     pagecolor="#ffffff"
     bordercolor="#666666"
     borderopacity="1.0"
     inkscape:pageshadow="2"
     inkscape:pageopacity="0.0"
     inkscape:pagecheckerboard="0"
     showgrid="false"
     inkscape:zoom="17.111111"
     inkscape:cx="22.470779"
     inkscape:cy="22.5"
     inkscape:window-width="1920"
     inkscape:window-height="974"
     inkscape:window-x="-11"
     inkscape:window-y="-11"
     inkscape:window-maximized="1"
     inkscape:current-layer="svg4" />
  <g
     id="path2">
    <path
       style="color:#000000;fill:#000000;stroke-width:1.5;stroke-linecap:round;-inkscape-stroke:none"
       d="m 22.5,9 c -2.21,0 -4,1.79 -4,4 0,0.89 0.29,1.71 0.78,2.38 C 17.33,16.5 16,18.59 16,21 c 0,2.03 0.94,3.84 2.41,5.03 C 15.41,27.09 11,31.58 11,39.5 H 34 C 34,31.58 29.59,27.09 26.59,26.03 28.06,24.84 29,23.03 29,21 29,18.59 27.67,16.5 25.72,15.38 26.21,14.71 26.5,13.89 26.5,13 c 0,-2.21 -1.79,-4 -4,-4 z"
       id="path827" />
    <path
       style="color:#000000;fill:#000000;stroke-linecap:round;-inkscape-stroke:none"
       d="m 22.5,8.25 c -2.614975,0 -4.75,2.135025 -4.75,4.75 0,0.808744 0.352054,1.498095 0.708984,2.167969 C 16.582126,16.473649 15.25,18.540905 15.25,21 c 0,1.897128 0.851732,3.531076 2.056641,4.822266 C 14.04157,27.453968 10.25,31.955432 10.25,39.5 v 0.75 h 24.5 V 39.5 C 34.75,31.955432 30.95843,27.453968 27.693359,25.822266 28.898268,24.531076 29.75,22.897128 29.75,21 29.75,18.540905 28.417874,16.473649 26.541016,15.167969 26.897946,14.498095 27.25,13.808744 27.25,13 27.25,10.385025 25.114975,8.25 22.5,8.25 Z m 0,1.5 c 1.805021,0 3.25,1.444979 3.25,3.25 0,0.727078 -0.233657,1.389045 -0.634766,1.9375 l -0.49414,0.675781 0.724609,0.417969 C 27.073989,17.023907 28.25,18.865936 28.25,21 c 0,1.798471 -0.830355,3.392895 -2.132813,4.447266 l -1.041015,0.84375 1.263672,0.445312 c 2.494984,0.881561 6.50607,4.897211 6.804687,12.013672 H 11.855469 c 0.298617,-7.116461 4.309703,-11.132111 6.804687,-12.013672 l 1.263672,-0.445312 -1.041016,-0.84375 C 17.580355,24.392895 16.75,22.798471 16.75,21 c 0,-2.134064 1.176011,-3.976093 2.904297,-4.96875 L 20.378906,15.613281 19.884766,14.9375 C 19.483657,14.389045 19.25,13.727078 19.25,13 c 0,-1.805021 1.444979,-3.25 3.25,-3.25 z"
       id="path829" />
  </g>
</svg>
