<?xml version="1.0" encoding="UTF-8" standalone="no"?>
<svg
   version="1.1"
   width="45"
   height="45"
   id="svg26"
   sodipodi:docname="black-rook.svg"
   inkscape:version="1.1.1 (3bf5ae0d25, 2021-09-20)"
   xmlns:inkscape="http://www.inkscape.org/namespaces/inkscape"
   xmlns:sodipodi="http://sodipodi.sourceforge.net/DTD/sodipodi-0.dtd"
   xmlns="http://www.w3.org/2000/svg"
   xmlns:svg="http://www.w3.org/2000/svg">
  <defs
     id="defs30" />
  <sodipodi:namedview
     id="namedview28"
     pagecolor="#ffffff"
     bordercolor="#666666"
     borderopacity="1.0"
     inkscape:pageshadow="2"
     inkscape:pageopacity="0.0"
     inkscape:pagecheckerboard="0"
     showgrid="false"
     inkscape:zoom="17.111111"
     inkscape:cx="22.470779"
     inkscape:cy="22.5"
     inkscape:window-width="1920"
     inkscape:window-height="974"
     inkscape:window-x="-11"
     inkscape:window-y="-11"
     inkscape:window-maximized="1"
     inkscape:current-layer="svg26" />
  <g
     style="fill:#000000;fill-rule:evenodd;stroke:#000000;stroke-width:1.5;stroke-linecap:round;stroke-linejoin:round"
     transform="translate(0,0.3)"
     id="g24">
    <g
       id="path2">
      <path
         style="color:#000000;fill-rule:nonzero;stroke:none;stroke-linecap:butt;stroke-linejoin:miter;-inkscape-stroke:none"
         d="M 9,39 H 36 V 36 H 9 Z"
         id="path849" />
      <path
         style="color:#000000;fill-rule:nonzero;stroke:none;stroke-linecap:butt;stroke-linejoin:miter;-inkscape-stroke:none"
         d="M 9,35.25 A 0.750075,0.750075 0 0 0 8.25,36 v 3 A 0.750075,0.750075 0 0 0 9,39.75 H 36 A 0.750075,0.750075 0 0 0 36.75,39 V 36 A 0.750075,0.750075 0 0 0 36,35.25 Z m 0.75,1.5 h 25.5 v 1.5 H 9.75 Z"
         id="path851" />
    </g>
    <g
       id="path4">
      <path
         style="color:#000000;fill-rule:nonzero;stroke:none;stroke-linecap:butt;stroke-linejoin:miter;-inkscape-stroke:none"
         d="M 12.5,32 14,29.5 h 17 l 1.5,2.5 z"
         id="path855" />
      <path
         style="color:#000000;fill-rule:nonzero;stroke:none;stroke-linecap:butt;stroke-linejoin:miter;-inkscape-stroke:none"
         d="m 14,28.75 a 0.750075,0.750075 0 0 0 -0.642578,0.363281 l -1.5,2.5 A 0.750075,0.750075 0 0 0 12.5,32.75 h 20 a 0.750075,0.750075 0 0 0 0.642578,-1.136719 l -1.5,-2.5 A 0.750075,0.750075 0 0 0 31,28.75 Z m 0.423828,1.5 h 16.152344 l 0.599609,1 H 13.824219 Z"
         id="path857" />
    </g>
    <g
       id="path6">
      <path
         style="color:#000000;fill-rule:nonzero;stroke:none;stroke-linecap:butt;stroke-linejoin:miter;-inkscape-stroke:none"
         d="m 12,36 v -4 h 21 v 4 z"
         id="path861" />
      <path
         style="color:#000000;fill-rule:nonzero;stroke:none;stroke-linecap:butt;stroke-linejoin:miter;-inkscape-stroke:none"
         d="M 12,31.25 A 0.750075,0.750075 0 0 0 11.25,32 v 4 A 0.750075,0.750075 0 0 0 12,36.75 H 33 A 0.750075,0.750075 0 0 0 33.75,36 V 32 A 0.750075,0.750075 0 0 0 33,31.25 Z m 0.75,1.5 h 19.5 v 2.5 h -19.5 z"
         id="path863" />
    </g>
    <g
       id="path8">
      <path
         style="color:#000000;fill-rule:nonzero;stroke:none;stroke-linecap:butt;stroke-linejoin:miter;-inkscape-stroke:none"
         d="m 14,29.5 v -13 h 17 v 13 z"
         id="path867" />
      <path
         style="color:#000000;fill-rule:nonzero;stroke:none;stroke-linecap:butt;stroke-linejoin:miter;-inkscape-stroke:none"
         d="m 13.25,15.75 v 14.5 H 14 31.75 v -14.5 z m 1.5,1.5 h 15.5 v 11.5 h -15.5 z"
         id="path869" />
    </g>
    <g
       id="path10">
      <path
         style="color:#000000;fill-rule:nonzero;stroke:none;stroke-linecap:butt;stroke-linejoin:miter;-inkscape-stroke:none"
         d="M 14,16.5 11,14 h 23 l -3,2.5 z"
         id="path873" />
      <path
         style="color:#000000;fill-rule:nonzero;stroke:none;stroke-linecap:butt;stroke-linejoin:miter;-inkscape-stroke:none"
         d="m 11,13.25 a 0.750075,0.750075 0 0 0 -0.480469,1.326172 l 3,2.5 A 0.750075,0.750075 0 0 0 14,17.25 h 17 a 0.750075,0.750075 0 0 0 0.480469,-0.173828 l 3,-2.5 A 0.750075,0.750075 0 0 0 34,13.25 Z m 2.072266,1.5 h 18.855468 l -1.199218,1 H 14.271484 Z"
         id="path875" />
    </g>
    <g
       id="path12">
      <path
         style="color:#000000;fill-rule:nonzero;stroke:none;stroke-linecap:butt;stroke-linejoin:miter;-inkscape-stroke:none"
         d="M 11,14 V 9 h 4 v 2 h 5 V 9 h 5 v 2 h 5 V 9 h 4 v 5 z"
         id="path879" />
      <path
         style="color:#000000;fill-rule:nonzero;stroke:none;stroke-linecap:butt;stroke-linejoin:miter;-inkscape-stroke:none"
         d="M 11,8.25 A 0.750075,0.750075 0 0 0 10.25,9 v 5 A 0.750075,0.750075 0 0 0 11,14.75 H 34 A 0.750075,0.750075 0 0 0 34.75,14 V 9 A 0.750075,0.750075 0 0 0 34,8.25 H 30 A 0.750075,0.750075 0 0 0 29.25,9 v 1.25 h -3.5 V 9 A 0.750075,0.750075 0 0 0 25,8.25 H 20 A 0.750075,0.750075 0 0 0 19.25,9 v 1.25 h -3.5 V 9 A 0.750075,0.750075 0 0 0 15,8.25 Z m 0.75,1.5 h 2.5 V 11 A 0.750075,0.750075 0 0 0 15,11.75 h 5 A 0.750075,0.750075 0 0 0 20.75,11 V 9.75 h 3.5 V 11 A 0.750075,0.750075 0 0 0 25,11.75 h 5 A 0.750075,0.750075 0 0 0 30.75,11 V 9.75 h 2.5 v 3.5 h -21.5 z"
         id="path881" />
    </g>
    <path
       style="color:#000000;fill:#ffffff;fill-rule:nonzero;stroke:none;stroke-linecap:butt;stroke-linejoin:miter;-inkscape-stroke:none"
       d="M 12,35 A 0.5,0.5 0 0 0 11.5,35.5 0.5,0.5 0 0 0 12,36 H 33 A 0.5,0.5 0 0 0 33.5,35.5 0.5,0.5 0 0 0 33,35 Z"
       id="path14" />
    <path
       style="color:#000000;fill:#ffffff;fill-rule:nonzero;stroke:none;stroke-linecap:butt;stroke-linejoin:miter;-inkscape-stroke:none"
       d="M 13,31 A 0.5,0.5 0 0 0 12.5,31.5 0.5,0.5 0 0 0 13,32 H 32 A 0.5,0.5 0 0 0 32.5,31.5 0.5,0.5 0 0 0 32,31 Z"
       id="path16" />
    <path
       style="color:#000000;fill:#ffffff;fill-rule:nonzero;stroke:none;stroke-linecap:butt;stroke-linejoin:miter;-inkscape-stroke:none"
       d="M 14,29 A 0.5,0.5 0 0 0 13.5,29.5 0.5,0.5 0 0 0 14,30 H 31 A 0.5,0.5 0 0 0 31.5,29.5 0.5,0.5 0 0 0 31,29 Z"
       id="path18" />
    <path
       style="color:#000000;fill:#ffffff;fill-rule:nonzero;stroke:none;stroke-linecap:butt;stroke-linejoin:miter;-inkscape-stroke:none"
       d="M 14,16 A 0.5,0.5 0 0 0 13.5,16.5 0.5,0.5 0 0 0 14,17 H 31 A 0.5,0.5 0 0 0 31.5,16.5 0.5,0.5 0 0 0 31,16 Z"
       id="path20" />
    <path
       style="color:#000000;fill:#ffffff;fill-rule:nonzero;stroke:none;stroke-linecap:butt;stroke-linejoin:miter;-inkscape-stroke:none"
       d="M 11,13.5 A 0.5,0.5 0 0 0 10.5,14 0.5,0.5 0 0 0 11,14.5 H 34 A 0.5,0.5 0 0 0 34.5,14 0.5,0.5 0 0 0 34,13.5 Z"
       id="path22" />
  </g>
</svg>
