<?xml version="1.0" encoding="UTF-8" standalone="no"?>
<svg
   version="1.1"
   width="45"
   height="45"
   id="svg14"
   sodipodi:docname="black-knight.svg"
   inkscape:version="1.1.1 (3bf5ae0d25, 2021-09-20)"
   xmlns:inkscape="http://www.inkscape.org/namespaces/inkscape"
   xmlns:sodipodi="http://sodipodi.sourceforge.net/DTD/sodipodi-0.dtd"
   xmlns="http://www.w3.org/2000/svg"
   xmlns:svg="http://www.w3.org/2000/svg">
  <defs
     id="defs18" />
  <sodipodi:namedview
     id="namedview16"
     pagecolor="#ffffff"
     bordercolor="#666666"
     borderopacity="1.0"
     inkscape:pageshadow="2"
     inkscape:pageopacity="0.0"
     inkscape:pagecheckerboard="0"
     showgrid="false"
     inkscape:zoom="17.111111"
     inkscape:cx="22.470779"
     inkscape:cy="22.5"
     inkscape:window-width="1920"
     inkscape:window-height="974"
     inkscape:window-x="-11"
     inkscape:window-y="-11"
     inkscape:window-maximized="1"
     inkscape:current-layer="svg14" />
  <g
     style="fill:none;fill-rule:evenodd;stroke:#000000;stroke-width:1.5;stroke-linecap:round;stroke-linejoin:round"
     transform="translate(0,0.3)"
     id="g12">
    <g
       id="path2">
      <path
         style="color:#000000;fill:#000000;fill-rule:nonzero;stroke:none;stroke-linecap:butt;stroke-linejoin:miter;-inkscape-stroke:none"
         d="m 22,10 c 10.5,1 16.5,8 16,29 H 15 c 0,-9 10,-6.5 8,-21"
         id="path837" />
      <path
         style="color:#000000;fill:#000000;fill-rule:nonzero;stroke:none;stroke-linecap:butt;stroke-linejoin:miter;-inkscape-stroke:none"
         d="m 22.070312,9.2539063 a 0.75,0.75 0 0 0 -0.816406,0.6757812 0.75,0.75 0 0 0 0.675781,0.8164065 c 5.098993,0.485618 8.927143,2.344913 11.554688,6.644531 2.560424,4.189784 3.914712,10.875778 3.753906,20.859375 H 15.857422 c 0.130102,-1.6351 0.567626,-2.858391 1.283203,-3.851563 0.833091,-1.156272 1.985898,-2.119675 3.146484,-3.3125 2.321173,-2.385649 4.477399,-5.775678 3.455078,-13.1875 a 0.75,0.75 0 0 0 -0.84375,-0.640625 0.75,0.75 0 0 0 -0.640625,0.84375 c 0.977678,7.088165 -0.866098,9.698155 -3.044921,11.9375 -1.089412,1.119673 -2.311608,2.125025 -3.291016,3.484375 C 14.942467,34.882788 14.25,36.611113 14.25,39 A 0.750075,0.750075 0 0 0 15,39.75 h 23 a 0.750075,0.750075 0 0 0 0.75,-0.732422 C 39.001746,28.444238 37.638075,21.309748 34.765625,16.609375 31.893175,11.909002 27.471309,9.7682869 22.070312,9.2539063 Z"
         id="path839" />
    </g>
    <g
       id="path4">
      <path
         style="color:#000000;fill:#000000;fill-rule:nonzero;stroke:none;stroke-linecap:butt;stroke-linejoin:miter;-inkscape-stroke:none"
         d="m 24,18 c 0.38,2.91 -5.55,7.37 -8,9 -3,2 -2.82,4.34 -5,4 -1.042,-0.94 1.41,-3.04 0,-3 -1,0 0.19,1.23 -1,2 -1,0 -4.003,1 -4,-4 0,-2 6,-12 6,-12 0,0 1.89,-1.9 2,-3.5 -0.73,-0.994 -0.5,-2 -0.5,-3 1,-1 3,2.5 3,2.5 h 2 c 0,0 0.78,-1.992 2.5,-3 1,0 1,3 1,3"
         id="path843" />
      <path
         style="color:#000000;fill:#000000;fill-rule:nonzero;stroke:none;stroke-linecap:butt;stroke-linejoin:miter;-inkscape-stroke:none"
         d="M 21,6.25 A 0.750075,0.750075 0 0 0 20.621094,6.3535156 C 18.998327,7.3045325 18.315406,8.6653703 18.052734,9.25 H 16.888672 C 16.725473,8.976068 16.485197,8.5353611 15.951172,7.8945312 15.609811,7.4848987 15.23873,7.0898211 14.763672,6.8183594 14.526143,6.6826285 14.248224,6.5703125 13.916016,6.5703125 c -0.332209,0 -0.700732,0.1519038 -0.947266,0.3984375 A 0.750075,0.750075 0 0 0 12.75,7.5 c 0,0.7774898 -0.08862,1.8881281 0.482422,2.992188 -0.05152,0.527503 -0.443523,1.310111 -0.882813,1.919921 -0.449101,0.623431 -0.880859,1.058594 -0.880859,1.058594 a 0.750075,0.750075 0 0 0 -0.111328,0.142578 c 0,0 -1.5064766,2.510572 -3.0156251,5.277344 -0.7545743,1.383386 -1.511173,2.830849 -2.0859375,4.076172 C 5.9684771,23.589458 5.7271323,24.160495 5.5507812,24.660156 5.3744302,25.159818 5.25,25.5625 5.25,26 c -7.95e-4,1.325059 0.1924744,2.310636 0.5585937,3.0625 0.3661194,0.751864 0.9312987,1.249961 1.5195313,1.501953 C 8.5045902,31.068436 9.7500003,30.75 10,30.75 a 0.750075,0.750075 0 0 0 0.230469,-0.06836 c 0.06124,0.312944 0.0034,0.636644 0.267578,0.875 a 0.750075,0.750075 0 0 0 0.386719,0.183593 c 0.67287,0.104943 1.298102,-0.0077 1.78125,-0.298828 0.483148,-0.291145 0.807293,-0.694048 1.123047,-1.109375 0.631506,-0.830653 1.245041,-1.785757 2.626953,-2.707031 1.255311,-0.835166 3.371177,-2.371189 5.166015,-4.105469 0.897419,-0.86714 1.71584,-1.781197 2.306641,-2.71289 0.590801,-0.931694 0.986084,-1.904062 0.855469,-2.904297 a 0.75,0.75 0 0 0 -0.841797,-0.646485 0.75,0.75 0 0 0 -0.646485,0.841797 c 0.05938,0.454763 -0.144005,1.132321 -0.634765,1.90625 -0.490761,0.77393 -1.236249,1.622142 -2.080078,2.4375 -1.687659,1.630717 -3.762345,3.138762 -4.957032,3.933594 -1.618085,1.078724 -2.414788,2.294483 -2.988281,3.048828 -0.286746,0.377173 -0.513148,0.619895 -0.703125,0.734375 -0.09117,0.05494 -0.261724,0.02865 -0.373047,0.04883 0.04495,-0.187405 0.154745,-0.45844 0.294922,-0.75 0.15147,-0.315047 0.344004,-0.586357 0.38086,-1.082031 0.01843,-0.247837 -0.07897,-0.656306 -0.367188,-0.884766 -0.284982,-0.225891 -0.576059,-0.245113 -0.839844,-0.238281 -0.198651,9.39e-4 -0.409456,0.02498 -0.625,0.140625 -0.219534,0.117788 -0.4018206,0.349109 -0.4765622,0.548828 -0.1494833,0.399439 -0.075262,0.630696 -0.064453,0.814453 0.010809,0.183758 0.00367,0.30627 -0.019531,0.378907 -0.010429,0.03266 -0.073632,0.07401 -0.095703,0.105468 C 9.0643151,29.273805 8.4133141,29.39691 7.9199219,29.185547 7.6327803,29.062539 7.3855519,28.873135 7.1582031,28.40625 6.9308543,27.939365 6.749295,27.174939 6.75,26 c 0,-0.0625 0.06307,-0.409819 0.2148437,-0.839844 C 7.1166174,24.730131 7.3440235,24.19179 7.6191406,23.595703 8.169375,22.403529 8.9127789,20.975986 9.6582031,19.609375 11.140586,16.891674 12.608178,14.444063 12.625,14.416016 c 0.08098,-0.08278 0.465649,-0.466519 0.941406,-1.126953 0.523398,-0.726568 1.107875,-1.665318 1.181641,-2.738282 a 0.750075,0.750075 0 0 0 -0.142578,-0.49414 c -0.385121,-0.5243978 -0.39366,-1.084237 -0.371094,-1.7324222 0.175461,0.1423887 0.359659,0.2854974 0.564453,0.53125 0.567278,0.6807334 1.050781,1.5175782 1.050781,1.5175782 A 0.750075,0.750075 0 0 0 16.5,10.75 h 2 a 0.750075,0.750075 0 0 0 0.699219,-0.476562 c 0,0 0.671199,-1.3179933 1.777343,-2.2226567 0.058,0.1713116 0.119163,0.338022 0.158204,0.5722656 C 21.246436,9.2930683 21.25,10 21.25,10 A 0.75,0.75 0 0 0 22,10.75 0.75,0.75 0 0 0 22.75,10 c 0,0 0.0036,-0.7930698 -0.134766,-1.6230469 C 22.54607,7.9619646 22.4483,7.5333191 22.248047,7.1328125 22.14792,6.9325592 22.021251,6.7325013 21.818359,6.5585937 21.615467,6.3846862 21.3125,6.25 21,6.25 Z"
         id="path845" />
    </g>
    <g
       id="path6">
      <path
         style="color:#000000;fill:#ffffff;fill-rule:nonzero;stroke:none;stroke-linecap:butt;stroke-linejoin:miter;-inkscape-stroke:none"
         d="m 9.5,25.5 a 0.5,0.5 0 1 1 -1,0 0.5,0.5 0 1 1 1,0 z"
         id="path849" />
      <path
         style="color:#000000;fill:#ffffff;fill-rule:nonzero;stroke:none;stroke-linecap:butt;stroke-linejoin:miter;-inkscape-stroke:none"
         d="m 9,24.25 c -0.2916663,0 -0.5934107,0.09367 -0.8417969,0.314453 C 7.9098169,24.785241 7.75,25.145834 7.75,25.5 c 0,0.354166 0.1598169,0.714759 0.4082031,0.935547 C 8.4065893,26.656334 8.7083337,26.75 9,26.75 c 0.2916663,0 0.5934107,-0.09367 0.8417969,-0.314453 C 10.090183,26.214759 10.25,25.854166 10.25,25.5 10.25,25.145834 10.090183,24.785241 9.8417969,24.564453 9.5934107,24.343666 9.2916663,24.25 9,24.25 Z m 0,1 c 0.041667,0 0.09341,0.01033 0.1542969,0.06445 C 9.2151832,25.368574 9.25,25.479167 9.25,25.5 c 0,0.02083 -0.034817,0.131426 -0.095703,0.185547 C 9.0934105,25.739668 9.0416666,25.75 9,25.75 c -0.041667,0 -0.09341,-0.01033 -0.1542969,-0.06445 C 8.7848168,25.631426 8.75,25.520833 8.75,25.5 c 0,-0.02083 0.034817,-0.131426 0.095703,-0.185547 C 8.9065895,25.260332 8.9583334,25.25 9,25.25 Z"
         id="path851" />
    </g>
    <g
       id="path8"
       transform="matrix(0.866,0.5,-0.5,0.866,9.693,-5.173)">
      <path
         style="color:#000000;fill:#ffffff;fill-rule:nonzero;stroke:none;stroke-linecap:butt;stroke-linejoin:miter;-inkscape-stroke:none"
         d="m 15,15.5 a 0.5,1.5 0 1 1 -1,0 0.5,1.5 0 1 1 1,0 z"
         id="path855" />
      <path
         style="color:#000000;fill:#ffffff;fill-rule:nonzero;stroke:none;stroke-linecap:butt;stroke-linejoin:miter;-inkscape-stroke:none"
         d="m 14.5,13.25 c -0.3125,0 -0.575185,0.164442 -0.730469,0.330078 -0.155284,0.165636 -0.245482,0.342118 -0.316406,0.53125 C 13.311276,14.489592 13.25,14.937501 13.25,15.5 c 0,0.562499 0.06128,1.010408 0.203125,1.388672 0.07092,0.189132 0.161122,0.365614 0.316406,0.53125 C 13.924815,17.585558 14.1875,17.75 14.5,17.75 c 0.3125,0 0.575185,-0.164442 0.730469,-0.330078 0.155284,-0.165636 0.245482,-0.342118 0.316406,-0.53125 C 15.688724,16.510408 15.75,16.062499 15.75,15.5 c 0,-0.562499 -0.06128,-1.010408 -0.203125,-1.388672 -0.07092,-0.189132 -0.161122,-0.365614 -0.316406,-0.53125 C 15.075185,13.414442 14.8125,13.25 14.5,13.25 Z"
         id="path857" />
    </g>
    <path
       d="M 24.55,10.4 L 24.1,11.85 L 24.6,12 C 27.75,13 30.25,14.49 32.5,18.75 C 34.75,23.01 35.75,29.06 35.25,39 L 35.2,39.5 L 37.45,39.5 L 37.5,39 C 38,28.94 36.62,22.15 34.25,17.66 C 31.88,13.17 28.46,11.02 25.06,10.5 L 24.55,10.4 z "
       style="fill:#ffffff;stroke:none"
       id="path10" />
  </g>
</svg>
