<?xml version="1.0" encoding="UTF-8" standalone="no"?>
<svg
   version="1.1"
   width="45"
   height="45"
   id="svg18"
   sodipodi:docname="white-rook.svg"
   inkscape:version="1.1.1 (3bf5ae0d25, 2021-09-20)"
   xmlns:inkscape="http://www.inkscape.org/namespaces/inkscape"
   xmlns:sodipodi="http://sodipodi.sourceforge.net/DTD/sodipodi-0.dtd"
   xmlns="http://www.w3.org/2000/svg"
   xmlns:svg="http://www.w3.org/2000/svg">
  <defs
     id="defs22" />
  <sodipodi:namedview
     id="namedview20"
     pagecolor="#ffffff"
     bordercolor="#666666"
     borderopacity="1.0"
     inkscape:pageshadow="2"
     inkscape:pageopacity="0.0"
     inkscape:pagecheckerboard="0"
     showgrid="false"
     inkscape:zoom="17.111111"
     inkscape:cx="22.470779"
     inkscape:cy="22.5"
     inkscape:window-width="1920"
     inkscape:window-height="974"
     inkscape:window-x="-11"
     inkscape:window-y="-11"
     inkscape:window-maximized="1"
     inkscape:current-layer="svg18" />
  <g
     id="path2">
    <path
       style="color:#000000;fill:#ffffff;fill-rule:evenodd;stroke-width:1.5;stroke-linejoin:round;-inkscape-stroke:none"
       d="m 9,39.3 h 27 v -3 H 9 Z"
       id="path882" />
    <path
       style="color:#000000;fill:#000000;fill-rule:evenodd;stroke-linejoin:round;-inkscape-stroke:none"
       d="m 9,35.550781 a 0.750075,0.750075 0 0 0 -0.75,0.75 v 3 a 0.750075,0.750075 0 0 0 0.75,0.75 h 27 a 0.750075,0.750075 0 0 0 0.75,-0.75 v -3 a 0.750075,0.750075 0 0 0 -0.75,-0.75 z m 0.75,1.5 h 25.5 v 1.5 H 9.75 Z"
       id="path884" />
  </g>
  <g
     id="path4">
    <path
       style="color:#000000;fill:#ffffff;fill-rule:evenodd;stroke-width:1.5;stroke-linejoin:round;-inkscape-stroke:none"
       d="m 12,36.3 v -4 h 21 v 4 z"
       id="path876" />
    <path
       style="color:#000000;fill:#000000;fill-rule:evenodd;stroke-linejoin:round;-inkscape-stroke:none"
       d="m 12,31.550781 a 0.750075,0.750075 0 0 0 -0.75,0.75 v 4 a 0.750075,0.750075 0 0 0 0.75,0.75 h 21 a 0.750075,0.750075 0 0 0 0.75,-0.75 v -4 a 0.750075,0.750075 0 0 0 -0.75,-0.75 z m 0.75,1.5 h 19.5 v 2.5 h -19.5 z"
       id="path878" />
  </g>
  <g
     id="path6">
    <path
       style="color:#000000;fill:#ffffff;fill-rule:evenodd;stroke-width:1.5;stroke-linejoin:round;-inkscape-stroke:none"
       d="m 11,14.3 v -5 h 4 v 2 h 5 v -2 h 5 v 2 h 5 v -2 h 4 v 5"
       id="path870" />
    <path
       style="color:#000000;fill:#000000;fill-rule:evenodd;stroke-linejoin:round;-inkscape-stroke:none"
       d="m 11,8.5507813 a 0.750075,0.750075 0 0 0 -0.75,0.75 v 4.9999997 h 1.5 v -4.25 h 2.5 v 1.25 a 0.750075,0.750075 0 0 0 0.75,0.75 h 5 a 0.750075,0.750075 0 0 0 0.75,-0.75 v -1.25 h 3.5 v 1.25 a 0.750075,0.750075 0 0 0 0.75,0.75 h 5 a 0.750075,0.750075 0 0 0 0.75,-0.75 v -1.25 h 2.5 v 4.25 h 1.5 V 9.3007813 a 0.750075,0.750075 0 0 0 -0.75,-0.75 h -4 a 0.750075,0.750075 0 0 0 -0.75,0.75 v 1.2499997 h -3.5 V 9.3007813 a 0.750075,0.750075 0 0 0 -0.75,-0.75 h -5 a 0.750075,0.750075 0 0 0 -0.75,0.75 v 1.2499997 h -3.5 V 9.3007813 a 0.750075,0.750075 0 0 0 -0.75,-0.75 z"
       id="path872" />
  </g>
  <g
     id="path8">
    <path
       style="color:#000000;fill:#ffffff;fill-rule:evenodd;stroke-width:1.5;stroke-linecap:round;stroke-linejoin:round;-inkscape-stroke:none"
       d="m 34,14.3 -3,3 H 14 l -3,-3"
       id="path864" />
    <path
       style="color:#000000;fill:#000000;fill-rule:evenodd;stroke-linecap:round;stroke-linejoin:round;-inkscape-stroke:none"
       d="m 11,13.550781 a 0.75,0.75 0 0 0 -0.53125,0.21875 0.75,0.75 0 0 0 0,1.060547 l 3,3 A 0.750075,0.750075 0 0 0 14,18.050781 h 17 a 0.750075,0.750075 0 0 0 0.53125,-0.220703 l 3,-3 a 0.75,0.75 0 0 0 0,-1.060547 0.75,0.75 0 0 0 -1.0625,0 l -2.779297,2.78125 H 14.310547 L 11.53125,13.769531 A 0.75,0.75 0 0 0 11,13.550781 Z"
       id="path866" />
  </g>
  <g
     id="path10">
    <path
       style="color:#000000;fill:#ffffff;fill-rule:evenodd;stroke-width:1.5;-inkscape-stroke:none"
       d="M 31,17.3 V 29.8 H 14 V 17.3"
       id="path858" />
    <path
       style="color:#000000;fill:#000000;fill-rule:evenodd;-inkscape-stroke:none"
       d="m 13.25,17.300781 v 13.25 h 18.5 v -13.25 h -1.5 v 11.75 h -15.5 v -11.75 z"
       id="path860" />
  </g>
  <g
     id="path12">
    <path
       style="color:#000000;fill:#ffffff;fill-rule:evenodd;stroke-width:1.5;stroke-linecap:round;stroke-linejoin:round;-inkscape-stroke:none"
       d="m 31,29.8 1.5,2.5 h -20 L 14,29.8"
       id="path852" />
    <path
       style="color:#000000;fill:#000000;fill-rule:evenodd;stroke-linecap:round;stroke-linejoin:round;-inkscape-stroke:none"
       d="m 13.818359,29.072266 a 0.75,0.75 0 0 0 -0.460937,0.341796 l -1.5,2.5 A 0.750075,0.750075 0 0 0 12.5,33.050781 h 20 a 0.750075,0.750075 0 0 0 0.642578,-1.136719 l -1.5,-2.5 a 0.75,0.75 0 0 0 -1.029297,-0.257812 0.75,0.75 0 0 0 -0.255859,1.029297 l 0.818359,1.365234 H 13.824219 l 0.818359,-1.365234 a 0.75,0.75 0 0 0 -0.255859,-1.029297 0.75,0.75 0 0 0 -0.56836,-0.08398 z"
       id="path854" />
  </g>
  <path
     style="color:#000000;fill:#000000;fill-rule:evenodd;stroke-linecap:round;-inkscape-stroke:none"
     d="m 11,13.550781 a 0.75,0.75 0 0 0 -0.75,0.75 0.75,0.75 0 0 0 0.75,0.75 h 23 a 0.75,0.75 0 0 0 0.75,-0.75 0.75,0.75 0 0 0 -0.75,-0.75 z"
     id="path14" />
</svg>
