<?xml version="1.0" encoding="UTF-8" standalone="no"?>
<svg
   version="1.1"
   width="45"
   height="45"
   id="svg856"
   sodipodi:docname="white-king.svg"
   inkscape:version="1.1.1 (3bf5ae0d25, 2021-09-20)"
   xmlns:inkscape="http://www.inkscape.org/namespaces/inkscape"
   xmlns:sodipodi="http://sodipodi.sourceforge.net/DTD/sodipodi-0.dtd"
   xmlns="http://www.w3.org/2000/svg"
   xmlns:svg="http://www.w3.org/2000/svg">
  <defs
     id="defs860" />
  <sodipodi:namedview
     id="namedview858"
     pagecolor="#ffffff"
     bordercolor="#666666"
     borderopacity="1.0"
     inkscape:pageshadow="2"
     inkscape:pageopacity="0.0"
     inkscape:pagecheckerboard="0"
     showgrid="false"
     inkscape:zoom="16.355556"
     inkscape:cx="22.469429"
     inkscape:cy="22.5"
     inkscape:window-width="1920"
     inkscape:window-height="974"
     inkscape:window-x="-11"
     inkscape:window-y="-11"
     inkscape:window-maximized="1"
     inkscape:current-layer="svg856" />
  <g
     style="fill:none;fill-rule:evenodd;stroke:#000000;stroke-width:1.5;stroke-linecap:round;stroke-linejoin:round"
     id="g854">
    <path
       style="color:#000000;fill:#000000;fill-rule:nonzero;stroke:none;stroke-linecap:butt;stroke-linejoin:miter;-inkscape-stroke:none"
       d="M 22.5,5.25 A 0.75,0.75 0 0 0 21.75,6 v 5.630859 a 0.75,0.75 0 0 0 0.75,0.75 0.75,0.75 0 0 0 0.75,-0.75 V 6 A 0.75,0.75 0 0 0 22.5,5.25 Z"
       id="path6570" />
    <g
       id="path844">
      <path
         style="color:#000000;fill:#000000;fill-rule:nonzero;stroke:none;stroke-linecap:butt;stroke-linejoin:miter;-inkscape-stroke:none"
         d="m 22.5,25 c 0,0 4.5,-7.5 3,-10.5 0,0 -1,-2.5 -3,-2.5 -2,0 -3,2.5 -3,2.5 -1.5,3 3,10.5 3,10.5"
         id="path948" />
      <path
         style="color:#000000;fill:#000000;fill-rule:nonzero;stroke:none;stroke-linecap:butt;stroke-linejoin:miter;-inkscape-stroke:none"
         d="m 22.5,11.25 c -1.312499,0 -2.259756,0.811023 -2.835938,1.53125 -0.560534,0.700668 -0.822851,1.362876 -0.83789,1.400391 -0.48946,0.992511 -0.45157,2.16324 -0.226563,3.363281 0.226237,1.206596 0.665218,2.464101 1.146485,3.61914 0.962533,2.31008 2.111328,4.222657 2.111328,4.222657 L 22.5,25 l 0.642578,0.386719 c 0,0 1.148795,-1.912577 2.111328,-4.222657 0.481267,-1.155039 0.920248,-2.412544 1.146485,-3.61914 0.225007,-1.200041 0.262897,-2.37077 -0.226563,-3.363281 -0.01504,-0.03752 -0.277356,-0.699723 -0.837891,-1.400391 C 24.759756,12.061023 23.812499,11.25 22.5,11.25 Z m 0,1.5 c 0.687499,0 1.240245,0.438978 1.664062,0.96875 0.423818,0.529772 0.638672,1.060547 0.638672,1.060547 l 0.01172,0.02734 0.01563,0.0293 c 0.252016,0.504032 0.293294,1.388238 0.09766,2.43164 -0.195638,1.043402 -0.600408,2.223402 -1.05664,3.318359 -0.621291,1.491097 -0.982104,2.04661 -1.371094,2.742188 -0.38899,-0.695578 -0.749803,-1.251091 -1.371094,-2.742188 -0.456232,-1.094957 -0.861002,-2.274957 -1.05664,-3.318359 -0.195638,-1.043402 -0.15436,-1.927608 0.09766,-2.43164 l 0.01563,-0.0293 0.01172,-0.02734 c 0,0 0.214854,-0.530775 0.638671,-1.060547 C 21.259755,13.188978 21.812501,12.75 22.5,12.75 Z"
         id="path950" />
    </g>
    <g
       id="path846">
      <path
         style="color:#000000;fill:#000000;fill-rule:nonzero;stroke:none;stroke-linecap:butt;stroke-linejoin:miter;-inkscape-stroke:none"
         d="m 12.5,37 c 5.5,3.5 14.5,3.5 20,0 v -7 c 0,0 9,-4.5 6,-10.5 -4,-6.5 -13.5,-3.5 -16,4 V 27 23.5 C 20,16 10.5,13 6.5,19.5 c -3,6 6,10.5 6,10.5 v 7"
         id="path954" />
      <path
         style="color:#000000;fill:#000000;fill-rule:nonzero;stroke:none;stroke-linecap:butt;stroke-linejoin:miter;-inkscape-stroke:none"
         d="m 12.644531,15.193359 c -2.619933,0.0492 -5.1587876,1.274388 -6.7832029,3.914063 a 0.750075,0.750075 0 0 0 -0.03125,0.05664 c -0.8338517,1.667704 -0.8437198,3.320404 -0.3691406,4.744141 0.4745792,1.423738 1.3922805,2.632515 2.3828125,3.623047 1.6912351,1.691235 3.371297,2.613042 3.90625,2.896484 V 37 a 0.75,0.75 0 0 0 0.0332,0.07813 0.75,0.75 0 0 0 0.103516,0.253906 0.75,0.75 0 0 0 0.164062,0.232422 0.75,0.75 0 0 0 0.04687,0.06836 c 5.812645,3.698957 14.992043,3.698957 20.804688,0 A 0.750075,0.750075 0 0 0 33.25,37 v -6.572266 c 0.534953,-0.283442 2.215015,-1.205249 3.90625,-2.896484 0.990532,-0.990532 1.908233,-2.199309 2.382812,-3.623047 0.47458,-1.423737 0.464712,-3.076437 -0.36914,-4.744141 a 0.750075,0.750075 0 0 0 -0.03125,-0.05664 C 36.972785,15.587855 33.179185,14.582782 29.738281,15.527344 26.761504,16.344498 24.057543,18.608672 22.5,21.773437 20.942457,18.608672 18.238496,16.344498 15.261719,15.527344 14.401493,15.291203 13.517842,15.176961 12.644531,15.193359 Z m 0.0332,1.476563 c 0.718485,-0.0031 1.452025,0.101375 2.185547,0.302734 2.909288,0.798628 5.699664,3.220984 6.886719,6.681641 V 27 a 0.750075,0.750075 0 0 0 1.5,0 v -3.345703 c 1.187055,-3.460657 3.977431,-5.883013 6.886719,-6.681641 2.923116,-0.802424 5.86557,-0.06005 7.701172,2.892578 0.650613,1.31932 0.645606,2.471385 0.279296,3.570313 -0.36917,1.10751 -1.138971,2.148737 -2.023437,3.033203 -1.768932,1.768932 -3.929687,2.861328 -3.929688,2.861328 A 0.750075,0.750075 0 0 0 31.75,30 v 6.511719 c -5.118585,3.048752 -13.381415,3.048752 -18.5,0 V 30 a 0.750075,0.750075 0 0 0 -0.414062,-0.669922 c 0,0 -2.160756,-1.092396 -3.929688,-2.861328 C 8.0217839,25.584284 7.2519825,24.543057 6.8828125,23.435547 6.516503,22.336619 6.5114956,21.184554 7.1621094,19.865234 c 1.3749782,-2.2117 3.3709216,-3.18596 5.5156246,-3.195312 z"
         id="path956" />
    </g>
    <path
       style="color:#000000;fill:#000000;fill-rule:nonzero;stroke:none;stroke-linecap:butt;stroke-linejoin:miter;-inkscape-stroke:none"
       d="M 20,7.25 A 0.75,0.75 0 0 0 19.25,8 0.75,0.75 0 0 0 20,8.75 h 5 A 0.75,0.75 0 0 0 25.75,8 0.75,0.75 0 0 0 25,7.25 Z"
       id="path848" />
    <path
       style="color:#000000;fill:#ffffff;fill-rule:nonzero;stroke:none;stroke-linecap:butt;stroke-linejoin:miter;-inkscape-stroke:none"
       d="m 12.988281,16.289062 c -0.840316,-0.0687 -1.673946,-0.01772 -2.480468,0.175782 -1.6130465,0.387012 -3.0953,1.362239 -4.1621099,2.970703 a 0.750075,0.750075 0 0 0 -0.0625,0.113281 c -0.6937505,1.586919 -0.6209671,3.140107 -0.1132812,4.460938 0.5076859,1.32083 1.4137828,2.427076 2.375,3.330078 1.9224341,1.806003 4.1347661,2.83789 4.1347661,2.83789 a 0.75,0.75 0 0 0 0.998046,-0.357422 0.75,0.75 0 0 0 -0.357421,-0.998046 c 0,0 -2.037985,-0.967726 -3.7480474,-2.574219 C 8.7172347,25.4448 7.9616882,24.490886 7.5703125,23.472656 7.1861951,22.47331 7.1313144,21.423724 7.640625,20.214844 c 0.8670722,-1.277983 1.9645362,-1.990566 3.216797,-2.291016 1.271951,-0.305174 2.713248,-0.174205 4.146484,0.328125 2.834604,0.99349 5.565259,3.454748 6.746094,6.421875 v 1.925781 a 0.750075,0.750075 0 0 0 1.5,0 v -1.925781 c 1.180835,-2.967127 3.91149,-5.428385 6.746094,-6.421875 1.433236,-0.50233 2.874533,-0.633299 4.146484,-0.328125 1.252261,0.30045 2.349725,1.013033 3.216797,2.291016 0.509311,1.20888 0.45443,2.258466 0.07031,3.257812 -0.391375,1.01823 -1.146922,1.972144 -2.001953,2.775391 -1.710062,1.606493 -3.748047,2.574219 -3.748047,2.574219 a 0.75,0.75 0 0 0 -0.357421,0.998046 0.75,0.75 0 0 0 0.998046,0.357422 c 0,0 2.212332,-1.031887 4.134766,-2.83789 0.961217,-0.903002 1.867314,-2.009248 2.375,-3.330078 0.507686,-1.320831 0.580469,-2.874019 -0.113281,-4.460938 a 0.750075,0.750075 0 0 0 -0.0625,-0.113281 C 37.587487,17.827083 36.105233,16.851856 34.492187,16.464844 32.879142,16.077832 31.15176,16.257018 29.5,16.835937 c -2.860152,1.002444 -5.463276,3.237423 -7,6.072266 -1.536724,-2.834843 -4.139848,-5.069822 -7,-6.072266 -0.82588,-0.289459 -1.671402,-0.478179 -2.511719,-0.546875 z"
       id="path850" />
    <path
       style="color:#000000;fill:#ffffff;fill-rule:nonzero;stroke:none;stroke-linecap:butt;stroke-linejoin:miter;-inkscape-stroke:none"
       d="m 22.5,26.96875 c -3.729078,0 -7.458402,0.790698 -10.359375,2.373047 a 0.75,0.75 0 0 0 -0.298828,1.017578 0.75,0.75 0 0 0 1.017578,0.298828 c 5.198043,-2.835296 14.083207,-2.835296 19.28125,0 a 0.75,0.75 0 0 0 1.017578,-0.298828 0.75,0.75 0 0 0 -0.298828,-1.017578 C 29.958402,27.759448 26.229078,26.96875 22.5,26.96875 Z m 0,3.5 c -3.729078,0 -7.458402,0.790698 -10.359375,2.373047 a 0.75,0.75 0 0 0 -0.298828,1.017578 0.75,0.75 0 0 0 1.017578,0.298828 c 5.198043,-2.835296 14.083207,-2.835296 19.28125,0 a 0.75,0.75 0 0 0 1.017578,-0.298828 0.75,0.75 0 0 0 -0.298828,-1.017578 C 29.958402,31.259448 26.229078,30.46875 22.5,30.46875 Z m 0,3.5 c -3.729078,0 -7.458402,0.790698 -10.359375,2.373047 a 0.75,0.75 0 0 0 -0.298828,1.017578 0.75,0.75 0 0 0 1.017578,0.298828 c 5.198043,-2.835296 14.083207,-2.835296 19.28125,0 a 0.75,0.75 0 0 0 1.017578,-0.298828 0.75,0.75 0 0 0 -0.298828,-1.017578 C 29.958402,34.759448 26.229078,33.96875 22.5,33.96875 Z"
       id="path852" />
  </g>
</svg>
