<?xml version="1.0" encoding="UTF-8" standalone="no"?>
<!-- Created with Inkscape (http://www.inkscape.org/) -->

<svg
   height="26"
   width="26"
   version="1.0"
   id="svg25"
   sodipodi:docname="white-amazon.svg"
   inkscape:version="1.1.1 (3bf5ae0d25, 2021-09-20)"
   xmlns:inkscape="http://www.inkscape.org/namespaces/inkscape"
   xmlns:sodipodi="http://sodipodi.sourceforge.net/DTD/sodipodi-0.dtd"
   xmlns="http://www.w3.org/2000/svg"
   xmlns:svg="http://www.w3.org/2000/svg"
   xmlns:rdf="http://www.w3.org/1999/02/22-rdf-syntax-ns#"
   xmlns:cc="http://creativecommons.org/ns#"
   xmlns:dc="http://purl.org/dc/elements/1.1/">
  <defs
     id="defs29" />
  <sodipodi:namedview
     id="namedview27"
     pagecolor="#ffffff"
     bordercolor="#666666"
     borderopacity="1.0"
     inkscape:pageshadow="2"
     inkscape:pageopacity="0.0"
     inkscape:pagecheckerboard="0"
     showgrid="false"
     inkscape:zoom="29.615385"
     inkscape:cx="12.983117"
     inkscape:cy="13"
     inkscape:window-width="1920"
     inkscape:window-height="974"
     inkscape:window-x="-11"
     inkscape:window-y="-11"
     inkscape:window-maximized="1"
     inkscape:current-layer="svg25" />
  <metadata
     id="metadata2">
    <rdf:RDF>
      <cc:Work
         rdf:about="">
        <dc:format>image/svg+xml</dc:format>
        <dc:type
           rdf:resource="http://purl.org/dc/dcmitype/StillImage" />
        <dc:title />
      </cc:Work>
    </rdf:RDF>
  </metadata>
  <g
     transform="matrix(0.75757574,0,0,0.75757574,2.8791515,-7.9393932)"
     id="g10">
    <g
       id="path4">
      <path
         style="color:#000000;fill:#ffffff;fill-rule:evenodd;stroke-width:1.32;stroke-linecap:round;-inkscape-stroke:none"
         d="m 14.44,29.5 c 0.222,1.68 -3.09,4.06 -4.5,5 -1.73,1.16 -1.74,2.7 -3,2.5 -0.602,-0.545 0.817,-2.02 0,-2 -0.58,0 0.19,1.1 -0.5,1.5 -0.58,0 -2.5,0.4 -2.5,-2.5 0,-1.2 3.5,-6.5 3.5,-6.5 0,0 0.934,-1.08 1,-2 -0.419,-0.575 -0.258,-1.48 0,-2 0.365,-0.731 1.5,1.5 1.5,1.5 h 1 c 0,0 0.5,-1.5 1.5,-2 0.517,-0.258 0.5,2 0.5,2 6.07,0.578 9.29,4.37 9,16.5 H 9.44 c 0,-4.9 4.8,-3.7 4.5,-10.5"
         id="path892" />
      <path
         style="color:#000000;fill:#000000;fill-rule:evenodd;stroke-linecap:round;-inkscape-stroke:none"
         d="m 12.144531,22.410156 c -0.696773,0.348387 -1.118759,0.952946 -1.402343,1.449219 -0.146264,0.255962 -0.149179,0.308391 -0.220704,0.480469 H 10.310547 C 10.197205,24.129634 10.113822,23.947688 9.8652344,23.595703 9.6805461,23.334196 9.500645,23.083473 9.1972656,22.878906 9.045576,22.776623 8.8273522,22.659385 8.5195313,22.701172 8.2117103,22.742959 7.95574,22.992526 7.8496094,23.205078 v 0.002 c -0.1724601,0.347594 -0.2964583,0.770674 -0.3222657,1.236328 -0.025807,0.465654 0.048653,0.992101 0.3789063,1.445313 l -0.125,-0.435547 c -0.018419,0.25675 -0.211911,0.700416 -0.4257813,1.041016 -0.2138702,0.3406 -0.4140625,0.574218 -0.4140625,0.574218 l -0.029297,0.0332 -0.023437,0.03516 c 0,0 -0.8806083,1.334286 -1.765625,2.826172 C 4.6805385,30.708833 4.2356961,31.49347 3.8945313,32.185547 3.5533664,32.877624 3.2792969,33.379167 3.2792969,34 c 0,1.595654 0.6247096,2.560418 1.4101562,2.933594 0.765282,0.363595 1.5363658,0.227619 1.7050781,0.220703 0.056318,0.115862 -0.00308,0.2412 0.1015625,0.335937 l 0.1464844,0.13086 0.1933594,0.03125 c 0.4446519,0.07058 0.8964701,-0.03049 1.2226563,-0.244141 0.3261861,-0.213648 0.5348843,-0.486151 0.734375,-0.753906 0.3989813,-0.53551 0.7603926,-1.10038 1.5136722,-1.605469 0.660312,-0.440208 1.740036,-1.232272 2.703125,-2.099609 -0.282834,1.62878 -0.854329,2.727376 -1.673828,3.546875 C 10.210239,37.621793 8.7792969,38.834492 8.7792969,41.5 v 0.660156 H 22.583984 l 0.01563,-0.644531 c 0.146435,-6.124987 -0.572167,-10.219474 -2.208984,-12.9375 -1.527038,-2.535734 -3.941425,-3.674636 -6.816406,-4.072266 -0.0051,-0.226414 0.0032,-0.339573 -0.03516,-0.677734 -0.03333,-0.293813 -0.07313,-0.581292 -0.191407,-0.873047 -0.05914,-0.145877 -0.129133,-0.309468 -0.339843,-0.46875 -0.210711,-0.159282 -0.627222,-0.193973 -0.863282,-0.07617 z m 0.0918,1.72461 c 0.0323,0.407978 0.04297,0.859375 0.04297,0.859375 l -0.0039,0.605468 0.601562,0.05664 c 2.910372,0.277133 4.964632,1.246594 6.382813,3.601562 1.357096,2.253536 2.046862,6.010908 1.982421,11.582032 H 10.273438 c 0.216384,-1.58876 0.960173,-2.374236 1.996093,-3.410157 1.168513,-1.168512 2.397871,-2.848375 2.316407,-6.21875 3.49e-4,-5.49e-4 -3.5e-4,-0.0014 0,-0.002 0.346642,-0.545807 0.593798,-1.144215 0.507812,-1.794922 a 0.65999997,0.65999997 0 0 0 -0.740234,-0.568359 0.65999997,0.65999997 0 0 0 -0.56836,0.740234 c 0.02493,0.188637 -0.05707,0.516093 -0.3125,0.917969 -0.255431,0.401877 -0.65948,0.855037 -1.123047,1.292969 -0.927134,0.875864 -2.08585,1.694603 -2.7753902,2.154297 h -0.00195 c -0.976719,0.65491 -1.4843727,1.439573 -1.8378906,1.914062 -0.034608,0.04645 -0.046589,0.04644 -0.078125,0.08594 0.082839,-0.190468 0.1839234,-0.367059 0.203125,-0.683594 0.010807,-0.178155 -0.03167,-0.471088 -0.25,-0.683594 -0.2159251,-0.210165 -0.4794191,-0.246075 -0.6777344,-0.242187 -0.1759524,0.0013 -0.4036818,0.0533 -0.5820312,0.207031 -0.1806638,0.155728 -0.2581708,0.363333 -0.2851563,0.509766 -0.053971,0.292866 -0.0058,0.459493 0.00977,0.609375 0.00763,0.07343 0.00317,0.09245 0.00391,0.142578 -0.293461,0.0058 -0.600255,0.03712 -0.8222656,-0.06836 C 4.9363071,35.590364 4.5996094,35.304344 4.5996094,34 c 0,0.02083 0.1634311,-0.591297 0.4785156,-1.230469 0.3150845,-0.639171 0.7471967,-1.403756 1.1796875,-2.132812 0.8649816,-1.458112 1.7324219,-2.773438 1.7324219,-2.773438 0.042931,-0.0505 0.2399689,-0.278739 0.484375,-0.667969 0.2696292,-0.429399 0.575466,-0.985188 0.6230469,-1.648437 L 9.1152344,25.306641 8.9726563,25.111328 C 8.8839104,24.989541 8.8312605,24.77622 8.8457031,24.515625 c 8.621e-4,-0.01555 0.010361,-0.02724 0.011719,-0.04297 0.2471547,0.377215 0.4941406,0.826172 0.4941406,0.826172 l 0.1835938,0.361328 h 1.8808597 l 0.15039,-0.451172 c 0,0 0.105851,-0.314633 0.322266,-0.693359 0.089,-0.155752 0.230499,-0.237805 0.347656,-0.380859 z"
         id="path894" />
    </g>
    <path
       fill="#000"
       d="m9,23.5a0.5,0.5,0,1,1,-1,0,0.5,0.5,0,1,1,1,0z"
       transform="translate(-3.4999999,10)"
       id="path6" />
    <path
       fill="#000"
       d="m9.6058,30.28a1.0281,1.4729,30,0,1,-1.7807,-1.028,1.0281,1.4729,30,0,1,1.7807,1.028z"
       id="path8" />
  </g>
  <g
     transform="translate(0,-4)"
     id="g23">
    <g
       id="path12">
      <path
         style="color:#000000;fill:#ffffff;fill-rule:evenodd;stroke-width:0.8;stroke-linejoin:round;-inkscape-stroke:none"
         d="m 18,18 4,-8 -4,4 V 8 l -3,5.125 -2,-5 -2,5 L 8,8 v 6 l -4,-4 3,8 c 0,0 2.0349,-2.5 6,-2.5 3.9651,0 5,2.5 5,2.5 z"
         id="path856" />
      <path
         style="color:#000000;fill:#000000;fill-rule:evenodd;stroke-linejoin:round;-inkscape-stroke:none"
         d="M 7.8945312,7.6132812 A 0.40004001,0.40004001 0 0 0 7.5996094,8 v 5.033203 L 4.2832031,9.7167969 A 0.40004001,0.40004001 0 0 0 3.625,10.140625 l 3,8 a 0.40004001,0.40004001 0 0 0 0.6855469,0.111328 c 0,0 1.8924905,-2.351562 5.6894531,-2.351562 1.898481,0 3.044342,0.588119 3.732422,1.158203 0.688079,0.570083 0.898437,1.09375 0.898437,1.09375 a 0.40004001,0.40004001 0 0 0 0.726563,0.02734 l 4,-7.999999 A 0.40004001,0.40004001 0 0 0 21.716797,9.7167969 L 18.400391,13.033203 V 8 A 0.40004001,0.40004001 0 0 0 17.654297,7.7988281 L 15.068359,12.21875 13.371094,7.9765625 a 0.40004001,0.40004001 0 0 0 -0.742188,0 L 10.931641,12.21875 8.3457031,7.7988281 A 0.40004001,0.40004001 0 0 0 7.8945312,7.6132812 Z M 13,9.2011719 14.628906,13.273438 a 0.40004001,0.40004001 0 0 0 0.716797,0.05273 L 17.599609,9.4765625 V 14 a 0.40004001,0.40004001 0 0 0 0.683594,0.283203 l 2.255859,-2.255859 -2.625,5.251953 C 17.746163,17.00504 17.731268,16.846616 17.242187,16.441406 16.421543,15.761491 15.066615,15.099609 13,15.099609 c -3.4994886,0 -5.2575258,1.660197 -5.8183594,2.242188 L 5.0234375,11.589844 7.7167969,14.283203 A 0.40004001,0.40004001 0 0 0 8.4003906,14 V 9.4765625 l 2.2539064,3.8496095 a 0.40004001,0.40004001 0 0 0 0.716797,-0.05273 z"
         id="path858" />
    </g>
    <g
       id="path3804">
      <path
         style="color:#000000;fill:#ffffff;stroke-width:0.75;-inkscape-stroke:none"
         d="m 5.5,10 a 1.5,1.5 0 0 1 -3,0 1.5,1.5 0 1 1 3,0 z"
         id="path862" />
      <path
         style="color:#000000;fill:#000000;-inkscape-stroke:none"
         d="M 4,8.125 C 3.5416672,8.125 3.0773179,8.2750232 2.71875,8.59375 2.3601821,8.9124768 2.125,9.4062508 2.125,10 c 0,0.593749 0.2351821,1.087523 0.59375,1.40625 C 3.0773179,11.724977 3.5416672,11.875 4,11.875 c 0.4583328,0 0.9226821,-0.150023 1.28125,-0.46875 C 5.6398179,11.087523 5.875,10.593749 5.875,10 5.875,9.4062508 5.6398179,8.9124768 5.28125,8.59375 4.9226821,8.2750232 4.4583328,8.125 4,8.125 Z m 0,0.75 c 0.2916664,0 0.5773184,0.099978 0.78125,0.28125 C 4.9851816,9.3375224 5.125,9.5937507 5.125,10 c 0,0.406249 -0.1398184,0.662478 -0.34375,0.84375 C 4.5773184,11.025022 4.2916664,11.125 4,11.125 3.7083336,11.125 3.4226816,11.025022 3.21875,10.84375 3.0148184,10.662478 2.875,10.406249 2.875,10 2.875,9.5937507 3.0148184,9.3375224 3.21875,9.15625 3.4226816,8.9749776 3.7083336,8.875 4,8.875 Z"
         id="path864" />
    </g>
    <g
       id="use15">
      <path
         style="color:#000000;fill:#ffffff;stroke-width:0.75;-inkscape-stroke:none"
         d="m 9.5,8 a 1.5,1.5 0 0 1 -3,0 1.5,1.5 0 1 1 3,0 z"
         id="path868" />
      <path
         style="color:#000000;fill:#000000;-inkscape-stroke:none"
         d="M 8,6.125 C 7.5416672,6.125 7.0773179,6.2750232 6.71875,6.59375 6.3601821,6.9124768 6.125,7.4062508 6.125,8 6.125,8.5937492 6.3601821,9.0875232 6.71875,9.40625 7.0773179,9.7249768 7.5416672,9.875 8,9.875 8.4583328,9.875 8.9226821,9.7249768 9.28125,9.40625 9.6398179,9.0875232 9.875,8.5937492 9.875,8 9.875,7.4062508 9.6398179,6.9124768 9.28125,6.59375 8.9226821,6.2750232 8.4583328,6.125 8,6.125 Z m 0,0.75 c 0.2916664,0 0.5773184,0.099978 0.78125,0.28125 C 8.9851816,7.3375224 9.125,7.5937507 9.125,8 9.125,8.4062493 8.9851816,8.6624776 8.78125,8.84375 8.5773184,9.0250224 8.2916664,9.125 8,9.125 7.7083336,9.125 7.4226816,9.0250224 7.21875,8.84375 7.0148184,8.6624776 6.875,8.4062493 6.875,8 6.875,7.5937507 7.0148184,7.3375224 7.21875,7.15625 7.4226816,6.9749776 7.7083336,6.875 8,6.875 Z"
         id="path870" />
    </g>
    <g
       id="use17">
      <path
         style="color:#000000;fill:#ffffff;stroke-width:0.75;-inkscape-stroke:none"
         d="m 14.5,8 a 1.5,1.5 0 0 1 -3,0 1.5,1.5 0 1 1 3,0 z"
         id="path874" />
      <path
         style="color:#000000;fill:#000000;-inkscape-stroke:none"
         d="m 13,6.125 c -0.458333,0 -0.922682,0.1500232 -1.28125,0.46875 C 11.360182,6.9124768 11.125,7.4062508 11.125,8 c 0,0.5937492 0.235182,1.0875232 0.59375,1.40625 C 12.077318,9.7249768 12.541667,9.875 13,9.875 c 0.458333,0 0.922682,-0.1500232 1.28125,-0.46875 C 14.639818,9.0875232 14.875,8.5937492 14.875,8 14.875,7.4062508 14.639818,6.9124768 14.28125,6.59375 13.922682,6.2750232 13.458333,6.125 13,6.125 Z m 0,0.75 c 0.291666,0 0.577318,0.099978 0.78125,0.28125 C 13.985182,7.3375224 14.125,7.5937507 14.125,8 c 0,0.4062493 -0.139818,0.6624776 -0.34375,0.84375 C 13.577318,9.0250224 13.291666,9.125 13,9.125 12.708334,9.125 12.422682,9.0250224 12.21875,8.84375 12.014818,8.6624776 11.875,8.4062493 11.875,8 11.875,7.5937507 12.014818,7.3375224 12.21875,7.15625 12.422682,6.9749776 12.708334,6.875 13,6.875 Z"
         id="path876" />
    </g>
    <g
       id="use19">
      <path
         style="color:#000000;fill:#ffffff;stroke-width:0.75;-inkscape-stroke:none"
         d="m 20.5,10 a 1.5,1.5 0 0 0 3,0 1.5,1.5 0 1 0 -3,0 z"
         id="path880" />
      <path
         style="color:#000000;fill:#000000;-inkscape-stroke:none"
         d="m 22,8.125 c -0.458333,0 -0.922682,0.1500232 -1.28125,0.46875 C 20.360182,8.9124768 20.125,9.4062508 20.125,10 c 0,0.593749 0.235182,1.087523 0.59375,1.40625 0.358568,0.318727 0.822917,0.46875 1.28125,0.46875 0.458333,0 0.922682,-0.150023 1.28125,-0.46875 C 23.639818,11.087523 23.875,10.593749 23.875,10 23.875,9.4062508 23.639818,8.9124768 23.28125,8.59375 22.922682,8.2750232 22.458333,8.125 22,8.125 Z m 0,0.75 c 0.291666,0 0.577318,0.099978 0.78125,0.28125 C 22.985182,9.3375224 23.125,9.5937507 23.125,10 c 0,0.406249 -0.139818,0.662478 -0.34375,0.84375 C 22.577318,11.025022 22.291666,11.125 22,11.125 c -0.291666,0 -0.577318,-0.09998 -0.78125,-0.28125 C 21.014818,10.662478 20.875,10.406249 20.875,10 20.875,9.5937507 21.014818,9.3375224 21.21875,9.15625 21.422682,8.9749776 21.708334,8.875 22,8.875 Z"
         id="path882" />
    </g>
    <g
       id="use21">
      <path
         style="color:#000000;fill:#ffffff;stroke-width:0.75;-inkscape-stroke:none"
         d="m 16.5,8 a 1.5,1.5 0 0 0 3,0 1.5,1.5 0 1 0 -3,0 z"
         id="path886" />
      <path
         style="color:#000000;fill:#000000;-inkscape-stroke:none"
         d="m 18,6.125 c -0.458333,0 -0.922682,0.1500232 -1.28125,0.46875 C 16.360182,6.9124768 16.125,7.4062508 16.125,8 c 0,0.5937492 0.235182,1.0875232 0.59375,1.40625 C 17.077318,9.7249768 17.541667,9.875 18,9.875 c 0.458333,0 0.922682,-0.1500232 1.28125,-0.46875 C 19.639818,9.0875232 19.875,8.5937492 19.875,8 19.875,7.4062508 19.639818,6.9124768 19.28125,6.59375 18.922682,6.2750232 18.458333,6.125 18,6.125 Z m 0,0.75 c 0.291666,0 0.577318,0.099978 0.78125,0.28125 C 18.985182,7.3375224 19.125,7.5937507 19.125,8 c 0,0.4062493 -0.139818,0.6624776 -0.34375,0.84375 C 18.577318,9.0250224 18.291666,9.125 18,9.125 17.708334,9.125 17.422682,9.0250224 17.21875,8.84375 17.014818,8.6624776 16.875,8.4062493 16.875,8 16.875,7.5937507 17.014818,7.3375224 17.21875,7.15625 17.422682,6.9749776 17.708334,6.875 18,6.875 Z"
         id="path888" />
    </g>
  </g>
</svg>
