<?xml version="1.0" encoding="UTF-8" standalone="no"?>
<svg
   version="1.1"
   width="45"
   height="45"
   id="svg12"
   sodipodi:docname="white-knight.svg"
   inkscape:version="1.1.1 (3bf5ae0d25, 2021-09-20)"
   xmlns:inkscape="http://www.inkscape.org/namespaces/inkscape"
   xmlns:sodipodi="http://sodipodi.sourceforge.net/DTD/sodipodi-0.dtd"
   xmlns="http://www.w3.org/2000/svg"
   xmlns:svg="http://www.w3.org/2000/svg">
  <defs
     id="defs16" />
  <sodipodi:namedview
     id="namedview14"
     pagecolor="#ffffff"
     bordercolor="#666666"
     borderopacity="1.0"
     inkscape:pageshadow="2"
     inkscape:pageopacity="0.0"
     inkscape:pagecheckerboard="0"
     showgrid="false"
     inkscape:zoom="17.111111"
     inkscape:cx="22.470779"
     inkscape:cy="22.5"
     inkscape:window-width="1920"
     inkscape:window-height="974"
     inkscape:window-x="-11"
     inkscape:window-y="-11"
     inkscape:window-maximized="1"
     inkscape:current-layer="svg12" />
  <g
     id="path2">
    <path
       style="color:#000000;fill:#ffffff;fill-rule:evenodd;stroke-width:1.5;stroke-linecap:round;stroke-linejoin:round;-inkscape-stroke:none"
       d="m 22,10.3 c 10.5,1 16.5,8 16,29 H 15 c 0,-9 10,-6.5 8,-21"
       id="path857" />
    <path
       style="color:#000000;fill:#000000;fill-rule:evenodd;stroke-linecap:round;stroke-linejoin:round;-inkscape-stroke:none"
       d="m 22.070312,9.5527344 a 0.75,0.75 0 0 0 -0.816406,0.6757816 0.75,0.75 0 0 0 0.675781,0.818359 c 5.098993,0.485618 8.927143,2.344913 11.554688,6.644531 2.560584,4.190048 3.914916,10.87473 3.753906,20.859375 H 15.857422 c 0.130102,-1.6351 0.567626,-2.85839 1.283203,-3.851562 0.833091,-1.156273 1.985898,-2.121629 3.146484,-3.314453 2.321173,-2.38565 4.477399,-5.775679 3.455078,-13.1875 a 0.75,0.75 0 0 0 -0.84375,-0.640625 0.75,0.75 0 0 0 -0.640625,0.845703 c 0.977678,7.088164 -0.866098,9.698154 -3.044921,11.9375 -1.089412,1.119673 -2.311608,2.123072 -3.291016,3.482422 C 14.942467,35.181616 14.25,36.911895 14.25,39.300781 a 0.750075,0.750075 0 0 0 0.75,0.75 h 23 a 0.750075,0.750075 0 0 0 0.75,-0.732422 C 39.001746,28.74502 37.638075,21.608576 34.765625,16.908203 31.893175,12.20783 27.471309,10.067115 22.070312,9.5527344 Z"
       id="path859" />
  </g>
  <g
     id="path4">
    <path
       style="color:#000000;fill:#ffffff;fill-rule:evenodd;stroke-width:1.5;stroke-linecap:round;stroke-linejoin:round;-inkscape-stroke:none"
       d="m 24,18.3 c 0.38,2.91 -5.55,7.37 -8,9 -3,2 -2.82,4.34 -5,4 -1.042,-0.94 1.41,-3.04 0,-3 -1,0 0.19,1.23 -1,2 -1,0 -4.003,1 -4,-4 0,-2 6,-12 6,-12 0,0 1.89,-1.9 2,-3.5 -0.73,-0.994 -0.5,-2 -0.5,-3 1,-1 3,2.5 3,2.5 h 2 c 0,0 0.78,-1.992 2.5,-3 1,0 1,3 1,3"
       id="path851" />
    <path
       style="color:#000000;fill:#000000;fill-rule:evenodd;stroke-linecap:round;stroke-linejoin:round;-inkscape-stroke:none"
       d="m 21,6.5507812 a 0.750075,0.750075 0 0 0 -0.378906,0.1015625 c -1.622767,0.9510169 -2.305688,2.3138079 -2.56836,2.8984376 H 16.888672 C 16.725473,9.2768493 16.485197,8.8361423 15.951172,8.1953125 15.609811,7.78568 15.23873,7.3886492 14.763672,7.1171875 14.526143,6.9814566 14.248224,6.8710937 13.916016,6.8710937 c -0.332209,0 -0.700732,0.1519038 -0.947266,0.3984375 A 0.750075,0.750075 0 0 0 12.75,7.8007812 c 0,0.777178 -0.08777,1.8866169 0.482422,2.9902348 -0.05152,0.527503 -0.443523,1.310111 -0.882813,1.919922 -0.449101,0.623431 -0.880859,1.060546 -0.880859,1.060546 a 0.750075,0.750075 0 0 0 -0.111328,0.142579 c 0,0 -1.5064766,2.510571 -3.0156251,5.277343 -0.7545743,1.383386 -1.511173,2.830849 -2.0859375,4.076172 C 5.9684771,23.89024 5.7271323,24.461276 5.5507812,24.960937 5.3746749,25.459905 5.2503442,25.862033 5.25,26.298828 c -7.95e-4,1.325059 0.1924744,2.312589 0.5585937,3.064453 0.3661194,0.751865 0.9312987,1.249962 1.5195313,1.501953 C 8.5045902,31.369218 9.7500003,31.050781 10,31.050781 a 0.750075,0.750075 0 0 0 0.232422,-0.06836 c 0.06142,0.312396 0.0019,0.637065 0.265625,0.875 a 0.750075,0.750075 0 0 0 0.386719,0.183594 c 0.67287,0.104943 1.298102,-0.0077 1.78125,-0.298829 0.483148,-0.291144 0.807293,-0.696001 1.123047,-1.111328 0.631506,-0.830653 1.245041,-1.785757 2.626953,-2.707031 1.255311,-0.835166 3.371177,-2.369236 5.166015,-4.103516 0.897419,-0.867139 1.71584,-1.783149 2.306641,-2.714843 0.590801,-0.931694 0.986084,-1.902108 0.855469,-2.902344 a 0.75,0.75 0 0 0 -0.841797,-0.646484 0.75,0.75 0 0 0 -0.646485,0.839843 c 0.05938,0.454763 -0.144005,1.132321 -0.634765,1.90625 -0.490761,0.77393 -1.236249,1.622142 -2.080078,2.4375 -1.687659,1.630717 -3.762345,3.140715 -4.957032,3.935547 -1.618085,1.078724 -2.414788,2.29253 -2.988281,3.046875 -0.286746,0.377173 -0.513148,0.619895 -0.703125,0.734375 -0.09117,0.05494 -0.261724,0.02865 -0.373047,0.04883 0.04496,-0.187407 0.154769,-0.456536 0.294922,-0.748047 0.15147,-0.315047 0.344004,-0.586357 0.38086,-1.082031 0.01843,-0.247837 -0.07897,-0.656305 -0.367188,-0.884765 -0.284982,-0.225891 -0.576059,-0.245114 -0.839844,-0.238282 -0.198651,9.39e-4 -0.409456,0.02498 -0.625,0.140625 -0.219534,0.117788 -0.4018206,0.349109 -0.4765622,0.548828 -0.1494833,0.399439 -0.075262,0.628743 -0.064453,0.8125 0.010809,0.183758 0.00367,0.30627 -0.019531,0.378907 -0.010535,0.03299 -0.073127,0.07558 -0.095703,0.107422 -0.6427162,0.03357 -1.2937172,0.156675 -1.7871094,-0.05469 C 7.6327803,29.36332 7.3855519,29.171963 7.1582031,28.705078 6.9308543,28.238194 6.749295,27.47572 6.75,26.300781 c 0,-0.0625 0.06307,-0.411771 0.2148437,-0.841797 0.1517737,-0.430025 0.3791798,-0.966412 0.6542969,-1.5625 0.5502344,-1.192174 1.2936383,-2.62167 2.0390625,-3.988281 1.4823829,-2.717701 2.9499749,-5.165312 2.9667969,-5.193359 0.08098,-0.08278 0.465649,-0.466519 0.941406,-1.126953 0.523398,-0.726568 1.107875,-1.663365 1.181641,-2.736328 A 0.750075,0.750075 0 0 0 14.605469,10.355469 C 14.220565,9.8313666 14.211866,9.2726602 14.234375,8.625 c 0.175421,0.142395 0.359758,0.2836622 0.564453,0.5292969 0.567278,0.6807334 1.050781,1.5175781 1.050781,1.5175781 A 0.750075,0.750075 0 0 0 16.5,11.050781 h 2 a 0.750075,0.750075 0 0 0 0.699219,-0.476562 c 0,0 0.670455,-1.3199563 1.777343,-2.2246096 0.05806,0.1713667 0.119126,0.3397522 0.158204,0.5742187 C 21.246436,9.5938496 21.25,10.300781 21.25,10.300781 a 0.75,0.75 0 0 0 0.75,0.75 0.75,0.75 0 0 0 0.75,-0.75 c 0,0 0.0036,-0.7950227 -0.134766,-1.6249997 C 22.54607,8.2607927 22.4483,7.8341003 22.248047,7.4335937 22.14792,7.2333405 22.021251,7.0332825 21.818359,6.859375 21.615467,6.6854675 21.3125,6.5507813 21,6.5507812 Z"
       id="path853" />
  </g>
  <g
     id="path6">
    <path
       style="color:#000000;fill:#000000;fill-rule:evenodd;stroke-width:1.5;stroke-linecap:round;stroke-linejoin:round;-inkscape-stroke:none"
       d="m 9.5,25.8 a 0.5,0.5 0 1 1 -1,0 0.5,0.5 0 1 1 1,0 z"
       id="path845" />
    <path
       style="color:#000000;fill:#000000;fill-rule:evenodd;stroke-linecap:round;stroke-linejoin:round;-inkscape-stroke:none"
       d="m 9,24.550781 c -0.2916663,0 -0.5934107,0.09367 -0.8417969,0.314453 C 7.9098169,25.086022 7.75,25.446615 7.75,25.800781 c 0,0.354167 0.1598169,0.71476 0.4082031,0.935547 C 8.4065893,26.957116 8.7083337,27.050781 9,27.050781 c 0.2916663,0 0.5934107,-0.09367 0.8417969,-0.314453 C 10.090183,26.515541 10.25,26.154948 10.25,25.800781 10.25,25.446615 10.090183,25.086022 9.8417969,24.865234 9.5934107,24.644447 9.2916663,24.550781 9,24.550781 Z m 0,1 c 0.041667,0 0.09341,0.01033 0.1542969,0.06445 0.060886,0.05412 0.095703,0.164714 0.095703,0.185547 0,0.02083 -0.034817,0.131426 -0.095703,0.185547 -0.060886,0.05412 -0.1126303,0.06445 -0.1542969,0.06445 -0.041667,0 -0.09341,-0.01033 -0.1542969,-0.06445 C 8.7848168,25.932207 8.75,25.821615 8.75,25.800781 c 0,-0.02083 0.034817,-0.131425 0.095703,-0.185547 C 8.9065895,25.561113 8.9583334,25.550781 9,25.550781 Z"
       id="path847" />
  </g>
  <g
     id="path8">
    <path
       style="color:#000000;fill:#000000;fill-rule:evenodd;stroke-width:1.49997;stroke-linecap:round;stroke-linejoin:round;-inkscape-stroke:none"
       d="m 14.933,16.05 a 0.499989,1.499967 30.000728 1 1 -0.866,-0.5 0.499989,1.499967 30.000728 1 1 0.866,0.5 z"
       id="path839" />
    <path
       style="color:#000000;fill:#000000;fill-rule:evenodd;stroke-linecap:round;stroke-linejoin:round;-inkscape-stroke:none"
       d="m 14.826172,13.773438 c -0.217295,0.0658 -0.381123,0.172452 -0.537109,0.300781 -0.311973,0.256658 -0.589843,0.614427 -0.871094,1.101562 -0.281251,0.487135 -0.451287,0.904231 -0.517578,1.302735 -0.03315,0.199252 -0.04384,0.398057 0.0078,0.61914 0.05166,0.221084 0.196167,0.494138 0.466797,0.650391 0.27063,0.156253 0.581534,0.145881 0.798828,0.08008 0.217295,-0.0658 0.381123,-0.174405 0.53711,-0.302734 0.311972,-0.256659 0.589842,-0.612475 0.871093,-1.09961 0.281251,-0.487135 0.451287,-0.906183 0.517578,-1.304687 0.03315,-0.199252 0.04384,-0.396104 -0.0078,-0.617188 C 16.040141,14.282823 15.89563,14.007815 15.625,13.851563 15.35437,13.69531 15.043466,13.707635 14.826172,13.773438 Z"
       id="path841" />
  </g>
</svg>
