<?xml version="1.0" encoding="UTF-8" standalone="no"?>
<svg
   version="1.1"
   width="45"
   height="45"
   id="svg14"
   sodipodi:docname="white-bishop.svg"
   inkscape:version="1.1.1 (3bf5ae0d25, 2021-09-20)"
   xmlns:inkscape="http://www.inkscape.org/namespaces/inkscape"
   xmlns:sodipodi="http://sodipodi.sourceforge.net/DTD/sodipodi-0.dtd"
   xmlns="http://www.w3.org/2000/svg"
   xmlns:svg="http://www.w3.org/2000/svg">
  <defs
     id="defs18" />
  <sodipodi:namedview
     id="namedview16"
     pagecolor="#ffffff"
     bordercolor="#666666"
     borderopacity="1.0"
     inkscape:pageshadow="2"
     inkscape:pageopacity="0.0"
     inkscape:pagecheckerboard="0"
     showgrid="false"
     inkscape:zoom="17.111111"
     inkscape:cx="22.470779"
     inkscape:cy="22.5"
     inkscape:window-width="1920"
     inkscape:window-height="974"
     inkscape:window-x="-11"
     inkscape:window-y="-11"
     inkscape:window-maximized="1"
     inkscape:current-layer="svg14" />
  <g
     style="fill:none;fill-rule:evenodd;stroke:#000000;stroke-width:1.5;stroke-linecap:round;stroke-linejoin:round"
     transform="translate(0,0.6)"
     id="g12">
    <g
       style="fill:#ffffff;stroke-linecap:butt"
       id="g8">
      <g
         id="path2">
        <path
           style="color:#000000;fill-rule:nonzero;stroke:none;stroke-linejoin:miter;-inkscape-stroke:none"
           d="m 9,36 c 3.39,-0.97 10.11,0.43 13.5,-2 3.39,2.43 10.11,1.03 13.5,2 0,0 1.65,0.54 3,2 -0.68,0.97 -1.65,0.99 -3,0.5 -3.39,-0.97 -10.11,0.46 -13.5,-1 C 19.11,38.96 12.39,37.53 9,38.5 7.65,38.99 6.68,38.97 6,38 7.35,36.54 9,36 9,36 Z"
           id="path855" />
        <path
           style="color:#000000;fill:#000000;fill-rule:nonzero;stroke:none;stroke-linejoin:miter;-inkscape-stroke:none"
           d="m 22.0625,33.390625 c -1.448844,1.038552 -3.842542,1.33232 -6.333984,1.40625 -2.491443,0.07393 -5.022786,-0.06489 -6.9355472,0.482422 a 0.750075,0.750075 0 0 0 -0.025391,0.0078 c 0,0 -1.8241355,0.58715 -3.3183594,2.203125 a 0.750075,0.750075 0 0 0 -0.0625,0.939453 c 0.4348291,0.620271 1.0774019,1.021439 1.7636719,1.111329 0.6862701,0.08989 1.3732407,-0.07017 2.1054688,-0.335938 l -0.048828,0.01563 c 1.4752697,-0.422127 3.9877377,-0.341117 6.5273437,-0.287109 2.425664,0.05158 4.857253,0.04397 6.765625,-0.681641 1.908372,0.725614 4.339961,0.733225 6.765625,0.681641 2.539606,-0.05401 5.052074,-0.135018 6.527344,0.287109 l -0.04883,-0.01563 c 0.732228,0.265772 1.419198,0.425827 2.105468,0.335938 0.68627,-0.08989 1.328843,-0.491058 1.763672,-1.111329 a 0.750075,0.750075 0 0 0 -0.0625,-0.939453 c -1.494224,-1.615975 -3.318359,-2.203125 -3.318359,-2.203125 a 0.750075,0.750075 0 0 0 -0.02539,-0.0078 c -1.912761,-0.547309 -4.444104,-0.408492 -6.935547,-0.482422 -2.491442,-0.07393 -4.88514,-0.367698 -6.333984,-1.40625 a 0.750075,0.750075 0 0 0 -0.875,0 z M 22.5,34.783203 c 1.898928,1.161824 4.332258,1.442566 6.728516,1.513672 2.559754,0.07596 5.076542,0.0032 6.554687,0.423828 0.02099,0.0071 0.985365,0.454342 1.982422,1.259766 -0.0415,0.0093 -0.06467,0.06811 -0.111328,0.07422 -0.306229,0.04011 -0.780667,-0.03554 -1.398438,-0.259765 a 0.750075,0.750075 0 0 0 -0.04883,-0.01563 c -1.914727,-0.547872 -4.457267,-0.399196 -6.972656,-0.345703 -2.515389,0.05349 -4.989559,5.5e-4 -6.4375,-0.623047 a 0.750075,0.750075 0 0 0 -0.59375,0 c -1.447941,0.623597 -3.922111,0.676539 -6.4375,0.623047 -2.515389,-0.05349 -5.057929,-0.202169 -6.9726562,0.345703 a 0.750075,0.750075 0 0 0 -0.048828,0.01563 C 8.12637,38.01915 7.6519321,38.094798 7.3457031,38.054687 7.2990421,38.048576 7.2758764,37.989818 7.234375,37.980469 8.2314325,37.175045 9.1958028,36.72776 9.2167969,36.720703 10.694942,36.30011 13.21173,36.372832 15.771484,36.296875 18.167742,36.225769 20.601072,35.945027 22.5,34.783203 Z"
           id="path857" />
      </g>
      <g
         id="path4">
        <path
           style="color:#000000;fill-rule:nonzero;stroke:none;stroke-linejoin:miter;-inkscape-stroke:none"
           d="m 15,32 c 2.5,2.5 12.5,2.5 15,0 0.5,-1.5 0,-2 0,-2 0,-2.5 -2.5,-4 -2.5,-4 5.5,-1.5 6,-11.5 -5,-15.5 -11,4 -10.5,14 -5,15.5 0,0 -2.5,1.5 -2.5,4 0,0 -0.5,0.5 0,2 z"
           id="path861" />
        <path
           style="color:#000000;fill:#000000;fill-rule:nonzero;stroke:none;stroke-linejoin:miter;-inkscape-stroke:none"
           d="m 22.244141,9.7949219 c -5.692069,2.0698431 -8.554354,5.7735001 -9.169922,9.2617191 -0.531978,3.014539 0.731484,5.802317 3.099609,7.085937 -0.795814,0.6602 -1.705393,1.706807 -1.849609,3.525391 -0.02282,0.03261 -0.03105,0.0348 -0.05078,0.07031 -0.07572,0.136287 -0.15093,0.321056 -0.197266,0.552735 -0.09267,0.463358 -0.06873,1.100445 0.212891,1.945312 a 0.750075,0.750075 0 0 0 0.179687,0.294922 c 0.801776,0.801776 2.004721,1.275697 3.40625,1.605469 1.401529,0.329771 3.012502,0.488281 4.625,0.488281 1.612498,0 3.223471,-0.15851 4.625,-0.488281 1.401529,-0.329772 2.604474,-0.803693 3.40625,-1.605469 a 0.750075,0.750075 0 0 0 0.179687,-0.294922 c 0.281623,-0.844867 0.305563,-1.481954 0.212891,-1.945312 -0.04634,-0.231679 -0.121551,-0.416448 -0.197266,-0.552735 -0.01973,-0.03551 -0.02796,-0.0377 -0.05078,-0.07031 -0.144216,-1.818584 -1.053795,-2.865191 -1.849609,-3.525391 2.368125,-1.28362 3.631587,-4.071398 3.099609,-7.085937 -0.615568,-3.488219 -3.477853,-7.191876 -9.169922,-9.2617191 a 0.750075,0.750075 0 0 0 -0.511718,0 z M 22.5,11.330078 c 5.103328,1.943493 7.449245,5.155098 7.949219,7.988281 0.509431,2.886775 -0.79909,5.318786 -3.146485,5.958985 a 0.750075,0.750075 0 0 0 -0.189453,1.365234 c 0,0 2.136719,1.357424 2.136719,3.357422 a 0.750075,0.750075 0 0 0 0.21875,0.53125 c 0,0 -0.0571,-0.07074 -0.05469,-0.06641 0.0024,0.0043 0.02095,0.03832 0.03711,0.11914 0.02607,0.130333 -0.02302,0.511821 -0.13086,0.951172 -0.478736,0.424505 -1.353599,0.861693 -2.539062,1.140625 C 25.526531,32.971009 24.012498,33.125 22.5,33.125 c -1.512498,0 -3.026531,-0.153991 -4.28125,-0.449219 -1.185463,-0.278932 -2.060326,-0.71612 -2.539062,-1.140625 -0.107838,-0.439351 -0.156926,-0.820839 -0.13086,-0.951172 0.01616,-0.08082 0.0347,-0.114802 0.03711,-0.11914 0.0024,-0.0043 -0.05469,0.06641 -0.05469,0.06641 A 0.750075,0.750075 0 0 0 15.75,30 c 0,-1.999998 2.136719,-3.357422 2.136719,-3.357422 A 0.750075,0.750075 0 0 0 17.697266,25.277344 C 15.349871,24.637145 14.04135,22.205134 14.550781,19.318359 15.050755,16.485176 17.396672,13.273571 22.5,11.330078 Z"
           id="path863" />
      </g>
      <g
         id="path6">
        <path
           style="color:#000000;fill-rule:nonzero;stroke:none;stroke-linejoin:miter;-inkscape-stroke:none"
           d="m 25,8 a 2.5,2.5 0 1 1 -5,0 2.5,2.5 0 1 1 5,0 z"
           id="path867" />
        <path
           style="color:#000000;fill:#000000;fill-rule:nonzero;stroke:none;stroke-linejoin:miter;-inkscape-stroke:none"
           d="m 22.5,4.75 c -0.791666,0 -1.593411,0.2603326 -2.216797,0.8144531 C 19.659817,6.1185736 19.25,6.979168 19.25,8 c 0,1.020832 0.409817,1.8814264 1.033203,2.435547 C 20.906589,10.989667 21.708334,11.25 22.5,11.25 c 0.791666,0 1.593411,-0.260333 2.216797,-0.814453 C 25.340183,9.8814264 25.75,9.020832 25.75,8 25.75,6.979168 25.340183,6.1185736 24.716797,5.5644531 24.093411,5.0103326 23.291666,4.75 22.5,4.75 Z m 0,1.5 c 0.458333,0 0.90659,0.1563352 1.220703,0.4355469 C 24.034816,6.9647585 24.25,7.3541678 24.25,8 24.25,8.6458322 24.034816,9.0352415 23.720703,9.3144531 23.40659,9.5936648 22.958333,9.75 22.5,9.75 22.041667,9.75 21.59341,9.5936648 21.279297,9.3144531 20.965184,9.0352415 20.75,8.6458322 20.75,8 20.75,7.3541678 20.965184,6.9647585 21.279297,6.6855469 21.59341,6.4063352 22.041667,6.25 22.5,6.25 Z"
           id="path869" />
      </g>
    </g>
    <path
       style="color:#000000;fill:#000000;fill-rule:nonzero;stroke:none;stroke-linecap:butt;stroke-linejoin:miter;-inkscape-stroke:none"
       d="m 22.5,14.75 a 0.75,0.75 0 0 0 -0.75,0.75 v 1.75 H 20 A 0.75,0.75 0 0 0 19.25,18 0.75,0.75 0 0 0 20,18.75 h 1.75 v 1.75 a 0.75,0.75 0 0 0 0.75,0.75 0.75,0.75 0 0 0 0.75,-0.75 V 18.75 H 25 A 0.75,0.75 0 0 0 25.75,18 0.75,0.75 0 0 0 25,17.25 H 23.25 V 15.5 A 0.75,0.75 0 0 0 22.5,14.75 Z m -5,10.5 A 0.75,0.75 0 0 0 16.75,26 0.75,0.75 0 0 0 17.5,26.75 h 10 A 0.75,0.75 0 0 0 28.25,26 0.75,0.75 0 0 0 27.5,25.25 Z m -2.5,4 A 0.75,0.75 0 0 0 14.25,30 0.75,0.75 0 0 0 15,30.75 H 30 A 0.75,0.75 0 0 0 30.75,30 0.75,0.75 0 0 0 30,29.25 Z"
       id="path10" />
  </g>
</svg>
