<?xml version="1.0" encoding="UTF-8" standalone="no"?>
<svg
   version="1.1"
   width="45"
   height="45"
   id="svg22"
   sodipodi:docname="white-queen.svg"
   inkscape:version="1.1.1 (3bf5ae0d25, 2021-09-20)"
   xmlns:inkscape="http://www.inkscape.org/namespaces/inkscape"
   xmlns:sodipodi="http://sodipodi.sourceforge.net/DTD/sodipodi-0.dtd"
   xmlns="http://www.w3.org/2000/svg"
   xmlns:svg="http://www.w3.org/2000/svg">
  <defs
     id="defs26" />
  <sodipodi:namedview
     id="namedview24"
     pagecolor="#ffffff"
     bordercolor="#666666"
     borderopacity="1.0"
     inkscape:pageshadow="2"
     inkscape:pageopacity="0.0"
     inkscape:pagecheckerboard="0"
     showgrid="false"
     inkscape:zoom="17.111111"
     inkscape:cx="22.470779"
     inkscape:cy="22.5"
     inkscape:window-width="1920"
     inkscape:window-height="974"
     inkscape:window-x="-11"
     inkscape:window-y="-11"
     inkscape:window-maximized="1"
     inkscape:current-layer="svg22" />
  <g
     id="path2">
    <path
       style="color:#000000;fill:#ffffff;stroke-width:1.5;stroke-linejoin:round;-inkscape-stroke:none"
       d="m 9,26 c 8.5,-1.5 21,-1.5 27,0 L 38.5,13.5 31,25 30.7,10.9 25.5,24.5 22.5,10 19.5,24.5 14.3,10.9 14,25 6.5,13.5 Z"
       id="path910" />
    <path
       style="color:#000000;fill:#000000;stroke-linejoin:round;-inkscape-stroke:none"
       d="M 22.5,9.25 A 0.750075,0.750075 0 0 0 21.765625,9.8476563 L 19.285156,21.837891 15,10.632813 a 0.750075,0.750075 0 0 0 -1.449219,0.251953 L 13.302734,22.554687 7.1289062,13.089844 a 0.750075,0.750075 0 0 0 -1.3652343,0.55664 l 2.5,12.5 a 0.750075,0.750075 0 0 0 0.8671875,0.591797 c 8.3760676,-1.478129 20.9252856,-1.450319 26.6874996,-0.0098 a 0.750075,0.750075 0 0 0 0.917969,-0.582032 l 2.5,-12.5 a 0.750075,0.750075 0 0 0 -1.365234,-0.55664 L 31.697266,22.554687 31.449219,10.884766 A 0.750075,0.750075 0 0 0 30,10.632813 L 25.714844,21.837891 23.234375,9.8476563 A 0.750075,0.750075 0 0 0 22.5,9.25 Z m 0,4.451172 2.164062,10.460937 c -1.442177,-0.01935 -2.860902,0.02132 -4.341796,0.06836 z M 14.96875,14.75 l 3.650391,9.546875 c -1.317881,0.06458 -2.578045,0.127439 -3.859375,0.244141 z m 15.0625,0 0.205078,9.638672 c -1.1886,-0.100597 -2.534121,-0.11265 -3.830078,-0.15625 z M 8,17.175781 l 4.949219,7.587891 c -1.134432,0.12937 -2.299408,0.236174 -3.3496096,0.408203 z m 29,0 -1.595703,7.976563 C 34.445282,24.943095 33.298005,24.792131 32.125,24.648437 Z"
       id="path912" />
  </g>
  <g
     id="path4">
    <path
       style="color:#000000;fill:#ffffff;stroke-width:1.5;stroke-linejoin:round;-inkscape-stroke:none"
       d="m 9,26 c 0,2 1.5,2 2.5,4 1,1.5 1,1 0.5,3.5 -1.5,1 -1,2.5 -1,2.5 -1.5,1.5 0,2.5 0,2.5 6.5,1 16.5,1 23,0 0,0 1.5,-1 0,-2.5 0,0 0.5,-1.5 -1,-2.5 -0.5,-2.5 -0.5,-2 0.5,-3.5 1,-2 2.5,-2 2.5,-4 -8.5,-1.5 -18.5,-1.5 -27,0 z"
       id="path904" />
    <path
       style="color:#000000;fill:#000000;stroke-linejoin:round;-inkscape-stroke:none"
       d="m 22.5,24.123047 c -4.66538,0 -9.331294,0.379925 -13.6308594,1.138672 A 0.750075,0.750075 0 0 0 8.25,26 c 0,1.187499 0.5495564,1.987056 1.09375,2.53125 0.5441936,0.544194 1.053411,0.938852 1.486328,1.804687 a 0.750075,0.750075 0 0 0 0.04492,0.08008 c 0.260667,0.391 0.458231,0.653833 0.568359,0.822265 0.110129,0.168432 0.119873,0.205562 0.128907,0.259766 0.01637,0.09825 -0.0805,0.668355 -0.279297,1.68164 -0.66318,0.582914 -1.028119,1.279641 -1.09961,1.851563 -0.05589,0.447104 0.01762,0.598588 0.06445,0.806641 C 9.6514814,36.647405 9.4966787,37.520896 9.7480469,38.107422 10.037422,38.782631 10.583984,39.125 10.583984,39.125 a 0.750075,0.750075 0 0 0 0.302735,0.117187 c 6.614256,1.017578 16.612306,1.017578 23.226562,0 A 0.750075,0.750075 0 0 0 34.416016,39.125 c 0,0 0.546562,-0.342369 0.835937,-1.017578 0.251368,-0.586526 0.09657,-1.460017 -0.509766,-2.269531 0.04683,-0.208053 0.120342,-0.359537 0.06445,-0.806641 -0.07149,-0.571922 -0.43643,-1.268649 -1.09961,-1.851563 -0.198794,-1.013285 -0.295671,-1.583393 -0.279297,-1.68164 0.009,-0.0542 0.01878,-0.09133 0.128907,-0.259766 0.110128,-0.168432 0.307692,-0.431265 0.568359,-0.822265 a 0.750075,0.750075 0 0 0 0.04492,-0.08008 C 34.602839,29.470102 35.112056,29.075444 35.65625,28.53125 36.200444,27.987056 36.75,27.187499 36.75,26 A 0.750075,0.750075 0 0 0 36.130859,25.261719 C 31.831294,24.502972 27.16538,24.123047 22.5,24.123047 Z m 0,1.503906 c 4.269722,0 8.511316,0.353169 12.470703,0.996094 -0.103368,0.258806 -0.114607,0.583357 -0.376953,0.845703 -0.455805,0.455805 -1.19659,1.06115 -1.763672,2.195312 l 0.04492,-0.08008 c -0.239332,0.358999 -0.416769,0.596167 -0.572266,0.833985 -0.155496,0.237818 -0.302002,0.513188 -0.355468,0.833984 -0.106932,0.641592 0.06829,1.153961 0.316406,2.394531 A 0.750075,0.750075 0 0 0 32.583984,34.125 c 0.573989,0.382659 0.692866,0.761674 0.734375,1.09375 0.04151,0.332076 -0.0293,0.544922 -0.0293,0.544922 a 0.750075,0.750075 0 0 0 0.179688,0.767578 c 0.602685,0.602685 0.489921,0.786538 0.404297,0.986328 -0.06079,0.141854 -0.140456,0.195458 -0.205078,0.253906 -6.330517,0.945042 -16.005421,0.945042 -22.335938,0 -0.06462,-0.05845 -0.144283,-0.112052 -0.205078,-0.253906 -0.08562,-0.19979 -0.198388,-0.383643 0.404297,-0.986328 a 0.750075,0.750075 0 0 0 0.179688,-0.767578 c 0,0 -0.07081,-0.212846 -0.0293,-0.544922 0.04151,-0.332076 0.160386,-0.711091 0.734375,-1.09375 a 0.750075,0.750075 0 0 0 0.320312,-0.478516 c 0.248114,-1.24057 0.423338,-1.752939 0.316406,-2.394531 -0.05347,-0.320796 -0.199972,-0.596166 -0.355468,-0.833984 C 12.541769,30.180151 12.364332,29.942983 12.125,29.583984 l 0.04492,0.08008 C 11.60284,28.5299 10.862055,27.924555 10.40625,27.46875 10.143904,27.206404 10.132665,26.881853 10.029297,26.623047 13.988684,25.980122 18.230278,25.626953 22.5,25.626953 Z"
       id="path906" />
  </g>
  <path
     style="color:#000000;fill:#000000;stroke-linejoin:round;-inkscape-stroke:none"
     d="m 22.5,28.5 c -2.326011,0 -4.652076,0.06306 -6.626953,0.189453 -1.974877,0.126392 -3.567061,0.300969 -4.578125,0.589844 l 0.410156,1.441406 c 0.738935,-0.211124 2.334256,-0.411549 4.265625,-0.535156 C 17.902072,30.061939 20.201016,30 22.5,30 c 2.298984,0 4.597928,0.06194 6.529297,0.185547 1.931369,0.123607 3.52669,0.324032 4.265625,0.535156 l 0.410156,-1.441406 C 32.694014,28.990422 31.10183,28.815845 29.126953,28.689453 27.152076,28.563061 24.826011,28.5 22.5,28.5 Z"
     id="path6" />
  <path
     style="color:#000000;fill:#000000;stroke-linejoin:round;-inkscape-stroke:none"
     d="m 22.5,31.996094 c -3.781654,0 -7.563067,0.253675 -10.623047,0.763672 l 0.246094,1.480468 c 5.880027,-0.980004 14.873879,-0.980004 20.753906,0 l 0.246094,-1.480468 C 30.063067,32.249769 26.281654,31.996094 22.5,31.996094 Z"
     id="path8" />
  <g
     id="circle10">
    <path
       style="color:#000000;fill:#ffffff;stroke-width:1.5;stroke-linejoin:round;-inkscape-stroke:none"
       d="M 8,12 A 2,2 0 0 1 6,14 2,2 0 0 1 4,12 2,2 0 0 1 6,10 2,2 0 0 1 8,12 Z"
       id="path890" />
    <path
       style="color:#000000;fill:#000000;stroke-linejoin:round;-inkscape-stroke:none"
       d="m 6,9.25 c -1.5098981,0 -2.75,1.240102 -2.75,2.75 0,1.509898 1.2401019,2.75 2.75,2.75 1.5098981,0 2.75,-1.240102 2.75,-2.75 C 8.75,10.490102 7.5098981,9.25 6,9.25 Z m 0,1.5 c 0.6992387,0 1.25,0.550761 1.25,1.25 0,0.699239 -0.5507613,1.25 -1.25,1.25 -0.6992387,0 -1.25,-0.550761 -1.25,-1.25 0,-0.699239 0.5507613,-1.25 1.25,-1.25 z"
       id="path892" />
  </g>
  <g
     id="circle12">
    <path
       style="color:#000000;fill:#ffffff;stroke-width:1.5;stroke-linejoin:round;-inkscape-stroke:none"
       d="m 16,9 a 2,2 0 0 1 -2,2 2,2 0 0 1 -2,-2 2,2 0 0 1 2,-2 2,2 0 0 1 2,2 z"
       id="path884" />
    <path
       style="color:#000000;fill:#000000;stroke-linejoin:round;-inkscape-stroke:none"
       d="m 14,6.25 c -1.509898,0 -2.75,1.2401019 -2.75,2.75 0,1.509898 1.240102,2.75 2.75,2.75 1.509898,0 2.75,-1.240102 2.75,-2.75 0,-1.5098981 -1.240102,-2.75 -2.75,-2.75 z m 0,1.5 c 0.699239,0 1.25,0.5507613 1.25,1.25 0,0.6992387 -0.550761,1.25 -1.25,1.25 -0.699239,0 -1.25,-0.5507613 -1.25,-1.25 0,-0.6992387 0.550761,-1.25 1.25,-1.25 z"
       id="path886" />
  </g>
  <g
     id="circle14">
    <path
       style="color:#000000;fill:#ffffff;stroke-width:1.5;stroke-linejoin:round;-inkscape-stroke:none"
       d="m 24.5,8 a 2,2 0 0 1 -2,2 2,2 0 0 1 -2,-2 2,2 0 0 1 2,-2 2,2 0 0 1 2,2 z"
       id="path878" />
    <path
       style="color:#000000;fill:#000000;stroke-linejoin:round;-inkscape-stroke:none"
       d="m 22.5,5.25 c -1.509898,0 -2.75,1.2401019 -2.75,2.75 0,1.5098981 1.240102,2.75 2.75,2.75 1.509898,0 2.75,-1.2401019 2.75,-2.75 0,-1.5098981 -1.240102,-2.75 -2.75,-2.75 z m 0,1.5 c 0.699239,0 1.25,0.5507613 1.25,1.25 0,0.6992387 -0.550761,1.25 -1.25,1.25 -0.699239,0 -1.25,-0.5507613 -1.25,-1.25 0,-0.6992387 0.550761,-1.25 1.25,-1.25 z"
       id="path880" />
  </g>
  <g
     id="circle16">
    <path
       style="color:#000000;fill:#ffffff;stroke-width:1.5;stroke-linejoin:round;-inkscape-stroke:none"
       d="m 33,9 a 2,2 0 0 1 -2,2 2,2 0 0 1 -2,-2 2,2 0 0 1 2,-2 2,2 0 0 1 2,2 z"
       id="path872" />
    <path
       style="color:#000000;fill:#000000;stroke-linejoin:round;-inkscape-stroke:none"
       d="m 31,6.25 c -1.509898,0 -2.75,1.2401019 -2.75,2.75 0,1.509898 1.240102,2.75 2.75,2.75 1.509898,0 2.75,-1.240102 2.75,-2.75 0,-1.5098981 -1.240102,-2.75 -2.75,-2.75 z m 0,1.5 c 0.699239,0 1.25,0.5507613 1.25,1.25 0,0.6992387 -0.550761,1.25 -1.25,1.25 -0.699239,0 -1.25,-0.5507613 -1.25,-1.25 0,-0.6992387 0.550761,-1.25 1.25,-1.25 z"
       id="path874" />
  </g>
  <g
     id="circle18">
    <path
       style="color:#000000;fill:#ffffff;stroke-width:1.5;stroke-linejoin:round;-inkscape-stroke:none"
       d="m 41,12 a 2,2 0 0 1 -2,2 2,2 0 0 1 -2,-2 2,2 0 0 1 2,-2 2,2 0 0 1 2,2 z"
       id="path866" />
    <path
       style="color:#000000;fill:#000000;stroke-linejoin:round;-inkscape-stroke:none"
       d="m 39,9.25 c -1.509898,0 -2.75,1.240102 -2.75,2.75 0,1.509898 1.240102,2.75 2.75,2.75 1.509898,0 2.75,-1.240102 2.75,-2.75 0,-1.509898 -1.240102,-2.75 -2.75,-2.75 z m 0,1.5 c 0.699239,0 1.25,0.550761 1.25,1.25 0,0.699239 -0.550761,1.25 -1.25,1.25 -0.699239,0 -1.25,-0.550761 -1.25,-1.25 0,-0.699239 0.550761,-1.25 1.25,-1.25 z"
       id="path868" />
  </g>
</svg>
